<svg width="55" height="55" viewBox="0 0 55 55" fill="none" xmlns="http://www.w3.org/2000/svg">
<circle cx="27.5" cy="27.5" r="27.5" fill="white"/>
<path d="M33.1586 26.5354C39.8771 29.4786 43.0991 34.6463 42.9977 42C32.9805 42 23.0324 42 13.0025 42C12.8969 34.6608 16.1069 29.4897 22.8663 26.5235C20.7844 24.7177 19.7192 22.4385 19.8667 19.6791C19.9885 17.4033 20.9523 15.495 22.6626 13.9773C25.7696 11.2204 30.5911 11.3793 33.6401 14.2482C36.4991 16.9376 37.5558 22.7735 33.1586 26.5354ZM40.2588 39.314C39.6436 35.1155 37.6393 31.88 33.9563 29.8939C29.4705 27.4746 25.0077 27.7575 20.8253 30.6725C17.859 32.7397 16.2407 35.688 15.7712 39.314C23.9545 39.314 32.0594 39.314 40.2588 39.314ZM22.5203 20.1739C22.5314 23.2512 24.9762 25.6714 28.0644 25.6612C31.0794 25.6509 33.4893 23.1726 33.4816 20.0901C33.4739 17.0897 30.9984 14.6601 27.9588 14.6695C24.9396 14.6789 22.5101 17.1384 22.5203 20.1739Z" fill="#5E9DBC"/>
</svg>
