<svg width="58" height="22" viewBox="0 0 58 22" fill="none" xmlns="http://www.w3.org/2000/svg">
<g clip-path="url(#clip0)">
<path d="M40.7103 18.68C32.6703 18.68 24.6903 18.68 16.6703 18.68C16.9403 16.85 16.5303 15.24 15.3403 13.86C14.3203 12.67 13.0003 12 11.4403 11.87C9.5503 11.71 7.9303 12.37 6.6503 13.74C5.6403 14.82 5.5103 15.31 5.1203 18.66C4.2603 18.66 3.3803 18.77 2.5403 18.64C0.950303 18.39 -0.0196966 17.26 0.000303413 15.56C0.0103034 14.68 0.410303 13.8 0.650303 12.92C0.840303 12.23 1.0203 11.54 1.2303 10.85C1.7303 9.18999 2.7203 8.03999 4.5003 7.55999C7.7303 6.67999 10.6103 5.09999 13.3303 3.16999C16.0603 1.22999 19.2103 0.319987 22.5403 0.109987C27.2903 -0.200013 32.0103 0.0499866 36.3903 2.10999C38.4203 3.05999 40.4803 4.15999 42.1503 5.61999C44.0503 7.28999 46.1703 7.96999 48.5503 8.34999C50.1303 8.59999 51.7103 8.92999 53.2403 9.37999C55.7403 10.12 57.1203 12.01 57.8503 14.34C58.5603 16.61 56.9303 18.67 54.5103 18.73C53.7803 18.75 53.0503 18.73 52.3303 18.73C52.3703 14.65 50.1603 11.95 46.7803 11.86C43.0803 11.75 40.9303 14.14 40.7103 18.68ZM12.4703 7.27999C12.5003 7.37999 12.5203 7.47999 12.5503 7.58999C16.9503 7.58999 21.3503 7.58999 25.8603 7.58999C25.7503 5.99999 25.6403 4.39999 25.5203 2.74999C20.4603 2.51999 16.1103 3.91999 12.4703 7.27999ZM27.6803 2.62999C27.8103 4.36999 27.9403 6.01999 28.0803 7.78999C32.3703 7.78999 36.5003 7.78999 40.7103 7.78999C37.1003 4.25999 32.7803 2.69999 27.6803 2.62999Z" fill="#787878"/>
<path d="M42.0107 17.53C42.0107 15.06 44.0307 13.07 46.5307 13.09C49.0007 13.1 51.0607 15.15 51.0507 17.57C51.0407 20.03 49.0007 22 46.4907 22C43.9807 22 42.0107 20.03 42.0107 17.53Z" fill="#787878"/>
<path d="M10.9302 22C8.4102 22 6.4502 20.04 6.4502 17.54C6.4502 15.06 8.4602 13.08 10.9602 13.09C13.4102 13.1 15.5002 15.17 15.4902 17.57C15.4802 20.01 13.4202 22 10.9302 22Z" fill="#787878"/>
</g>
<defs>
<clipPath id="clip0">
<rect width="58" height="22" fill="white"/>
</clipPath>
</defs>
</svg>
