<svg width="40" height="40" viewBox="0 0 40 40" fill="none" xmlns="http://www.w3.org/2000/svg">
<g clip-path="url(#clip0)">
<path d="M18.27 0C18.07 0.01 17.87 0.02 17.68 0.02C17.63 0.02 17.58 0.02 17.53 0.02C17.36 0.06 17.19 0.09 17.02 0.11C13.36 0.78 10.07 2.21 7.28 4.55C8.88 6.15 10.44 7.73 11.84 9.13C14.02 8.22 16.18 7.33 18.5 6.36V0.06C18.47 0.05 18.45 0.03 18.42 0.02C18.37 0.02 18.32 0.01 18.27 0Z" fill="#787878"/>
<path d="M7.18 9.4C6.4 8.6 5.68 7.75 4.93 6.91C2.61 9.37 1.14 12.52 0.189998 16.92C0.179998 17.01 0.159998 17.1 0.129998 17.19C0.129998 17.32 0.119998 17.45 0.0899976 17.57C0.0799976 17.7 0.0699976 17.83 0.0599976 17.95C0.0699976 18.03 0.0799976 18.11 0.0799976 18.2C0.0799976 18.21 0.0799976 18.22 0.0799976 18.23C0.0899976 18.24 0.109998 18.25 0.119998 18.26H6.54C7.49 15.98 8.38 13.83 9.36 11.47C8.77 10.91 7.95 10.18 7.18 9.4Z" fill="#787878"/>
<path d="M17.54 39.95C17.61 39.96 17.68 39.96 17.75 39.97C17.92 39.98 18.08 39.97 18.25 39.96C18.32 39.95 18.37 39.94 18.42 39.92C18.42 39.89 18.43 39.87 18.44 39.84V39.83C18.44 39.81 18.45 39.8 18.45 39.78V33.47C16.11 32.49 13.96 31.58 11.63 30.6C10.37 31.87 8.94 33.31 7.52 34.76C7.41 34.88 7.31 35.01 7.03 35.34C8.69 36.3 10.23 37.38 11.91 38.12C13.52 38.83 15.26 39.26 16.63 39.68C16.94 39.76 17.25 39.85 17.54 39.95Z" fill="#787878"/>
<path d="M28.43 30.8C26.27 31.68 24.13 32.55 21.8 33.5V39.72C21.8 39.75 21.81 39.78 21.81 39.81C21.81 39.87 21.81 39.92 21.81 39.98C21.88 39.99 21.95 40 22.03 40.01C22.42 39.92 22.81 39.85 23.2 39.81C27.09 39.03 31.31 37.08 32.88 35.28C31.33 33.71 29.79 32.17 28.43 30.8Z" fill="#787878"/>
<path d="M6.55 21.54H0.16C0.13 21.6 0.09 21.65 0.05 21.7C0.05 21.81 0.03 21.92 0 22.02C0 22.03 0 22.04 0 22.05C0.01 22.1 0.02 22.16 0.03 22.21C0.08 22.36 0.1 22.52 0.1 22.69C0.1 22.72 0.1 22.75 0.09 22.78C0.09 22.79 0.1 22.8 0.1 22.81V22.73C0.76 26.47 2.2 29.83 4.63 32.67C6.25 31.08 7.84 29.52 9.26 28.12C8.38 25.96 7.49 23.81 6.55 21.54Z" fill="#787878"/>
<path d="M37.1 0.249993C37.08 0.239993 37.07 0.239993 37.05 0.229993C36.9 0.189993 36.76 0.139993 36.62 0.0999933C36.52 0.0799933 36.41 0.0699933 36.31 0.0499933C36.3 0.0499933 36.28 0.0499933 36.27 0.0399933C36.09 0.0499933 35.92 0.0599933 35.75 0.0599933C35.61 0.0599933 35.46 0.0499933 35.28 0.0499933C35.13 0.0699933 34.99 0.0899933 34.85 0.109993C31.76 1.69999 29.86 4.87999 26.94 7.11999C26.51 6.63999 26.15 6.15999 25.71 5.74999C24.73 4.82999 23.53 4.81999 22.68 5.69999C21.87 6.52999 21.87 7.71999 22.76 8.62999C23.21 9.09999 23.76 9.46999 24.3 9.90999C21.94 12.25 19.89 14.45 17.66 16.44C15.33 18.53 14.93 21.03 15.54 23.86C15.59 24.07 15.81 24.37 15.99 24.4C18.58 24.93 21.04 24.9 23.06 22.83C25.34 20.5 27.67 18.21 30.14 15.74C30.64 16.32 31.03 16.87 31.51 17.32C32.42 18.18 33.65 18.14 34.47 17.3C35.25 16.5 35.27 15.29 34.45 14.43C34 13.95 33.45 13.57 32.86 13.06C34.71 11.23 36.4 9.62999 38 7.94999C38.75 7.16999 39.33 6.22999 39.98 5.36999V1.98999C39.26 1.52999 38.53 1.06999 37.81 0.609993C37.57 0.509993 37.33 0.389993 37.1 0.249993ZM21.09 21.79C19.81 22.99 18.28 22.61 17.5 21.08C17.41 20.9 17.41 20.61 17.49 20.43C17.76 19.84 17.99 19.17 18.43 18.71C20.7 16.38 23.03 14.1 25.35 11.81C25.44 11.72 25.55 11.65 25.66 11.57C26.62 12.52 27.57 13.45 28.54 14.42C26.04 16.9 23.62 19.41 21.09 21.79Z" fill="#787878"/>
<path d="M40 23.71C39.66 24.77 39.36 25.85 38.98 26.9C38.2 29.06 37.05 31.02 35.56 32.7C33.98 31.14 32.44 29.63 30.85 28.06C32.13 26.29 33.11 24.28 33.48 22.01C33.51 21.82 34.01 21.59 34.3 21.58C36.2 21.52 38.1 21.52 40 21.51C40 22.25 40 22.98 40 23.71Z" fill="#787878"/>
<path d="M37.83 0.610001C38.55 1.07 39.27 1.53 40 1.99V1.12C39.31 1.04 38.52 0.880001 37.83 0.610001Z" fill="white"/>
</g>
<defs>
<clipPath id="clip0">
<rect width="40" height="40" fill="white"/>
</clipPath>
</defs>
</svg>
