<svg width="40" height="40" viewBox="0 0 40 40" fill="none" xmlns="http://www.w3.org/2000/svg">
<g clip-path="url(#clip0)">
<path d="M19.87 40C8.9 40.02 0 30.98 0 19.84C0 8.96 8.99 0.0200028 19.96 2.78815e-06C31.05 -0.0199972 40.01 8.97 40 20.1C39.99 31.1 31 39.98 19.87 40ZM33.54 13.75C33.49 13.6 33.43 13.35 33.31 13.14C30.42 7.84 25.93 4.97 19.92 5C13.9 5.03 9.44 7.96 6.63 13.3C6.47 13.61 6.47 14.27 6.67 14.43C6.99 14.69 7.55 14.81 7.98 14.75C8.49 14.68 8.96 14.36 9.45 14.15C14.17 12.19 19.03 11.07 24.11 12.23C26.75 12.84 29.31 13.86 31.88 14.75C32.8 15.07 33.54 14.72 33.54 13.75ZM33.25 23.18C27.74 23.4 23.33 27.81 23.17 33.25C23.14 34.38 23.44 34.64 24.48 34.28C29.35 32.62 32.62 29.35 34.28 24.49C34.64 23.45 34.37 23.13 33.25 23.18ZM6.76 23.17C5.63 23.13 5.36 23.44 5.71 24.48C7.38 29.38 10.68 32.67 15.58 34.32C16.51 34.63 16.83 34.36 16.8 33.39C16.62 27.83 12.24 23.38 6.76 23.17ZM20.02 15.79C17.6 15.78 15.81 17.54 15.79 19.92C15.77 22.32 17.64 24.21 20.02 24.2C22.3 24.19 24.17 22.34 24.2 20.08C24.23 17.62 22.46 15.8 20.02 15.79Z" fill="#787878"/>
</g>
<defs>
<clipPath id="clip0">
<rect width="40" height="40" fill="white"/>
</clipPath>
</defs>
</svg>
