<svg width="40" height="40" viewBox="0 0 40 40" fill="none" xmlns="http://www.w3.org/2000/svg">
<g clip-path="url(#clip0)">
<path d="M39.99 18.83C39.9 18.58 39.84 18.43 39.79 18.28C38.52 14.6 37.3 10.89 35.96 7.23999C34.3 2.71999 30.57 0.0199906 26.1 0.00999061C18.54 -0.0100094 10.99 -9.39146e-06 3.44 0.00999061C1.74 0.00999061 0.53 0.949991 0 2.60999V37.42C0.29 38.47 0.85 39.27 1.78 39.69C2.09 39.83 2.43 39.94 2.78 40H22.89C23.22 39.87 23.38 39.58 23.47 39.03C24.04 35.6 25.67 32.93 28.35 31.03C30.46 29.54 32.78 28.94 35.29 29.24C36.06 29.33 36.31 29.18 36.61 28.39C37.67 25.56 38.73 22.74 39.8 19.91C39.85 19.77 39.91 19.64 40 19.41V18.88C40 18.87 39.99 18.85 39.99 18.83ZM23.26 31.96C23.22 32.37 22.97 32.69 22.6 32.75C22.43 32.78 22.26 32.78 22.09 32.78C19.15 32.78 16.21 32.78 13.27 32.78C10.34 32.78 7.42 32.78 4.49 32.78C4.36 32.78 4.23 32.78 4.1 32.78C3.57 32.75 3.24 32.4 3.23 31.89C3.23 31.38 3.57 31.02 4.09 30.98C4.18 30.97 4.27 30.98 4.36 30.98C10.28 30.98 16.2 30.98 22.12 30.98C22.33 30.98 22.54 31 22.74 31.06C23.09 31.18 23.29 31.56 23.26 31.96ZM23.27 20.04C17.3 20.04 11.33 20.04 5.36 20.04H4.91V5.47999H5.35C12.21 5.47999 19.07 5.47999 25.93 5.47999C28.05 5.47999 29.74 6.36999 30.87 8.34999C31.16 8.85999 31.36 9.44999 31.56 10.01C32.57 12.92 33.56 15.83 34.59 18.73C34.76 19.2 34.53 19.55 34.41 19.94C34.39 20.01 34.16 20.03 34.02 20.03C30.43 20.04 26.85 20.04 23.27 20.04ZM34.01 25.5C33.23 25.51 32.44 25.5 31.66 25.5C30.84 25.5 30.02 25.51 29.19 25.49C28.73 25.48 28.41 25.19 28.33 24.77C28.26 24.36 28.43 23.95 28.79 23.79C28.93 23.73 29.09 23.7 29.25 23.7C30.84 23.69 32.43 23.69 34.02 23.7C34.6 23.7 34.97 24.06 34.98 24.58C34.99 25.12 34.61 25.49 34.01 25.5Z" fill="#787878"/>
<path d="M8.24023 14.43C8.30023 14.31 8.39023 14.05 8.55023 13.87C10.1602 12.09 11.7902 10.33 13.4202 8.55999C13.8202 8.11999 14.3302 8.09999 14.6702 8.46999C15.0202 8.84999 15.0202 9.38999 14.6102 9.82999C12.9802 11.61 11.3502 13.39 9.71023 15.16C9.43023 15.47 9.08023 15.57 8.71023 15.38C8.41023 15.24 8.24023 14.96 8.24023 14.43Z" fill="#787878"/>
<path d="M11.6402 8.23998C11.5102 8.47998 11.4202 8.74998 11.2502 8.93998C10.2002 10.11 9.14022 11.26 8.07022 12.41C7.66022 12.85 7.16022 12.87 6.82022 12.5C6.47022 12.13 6.48022 11.58 6.88022 11.14C7.94022 9.96998 9.02022 8.79998 10.0902 7.63998C10.3702 7.32998 10.7102 7.20998 11.0902 7.39998C11.3902 7.53998 11.5602 7.81998 11.6402 8.23998Z" fill="#787878"/>
</g>
<defs>
<clipPath id="clip0">
<rect width="40" height="40" fill="white"/>
</clipPath>
</defs>
</svg>
