<svg width="682" height="508" viewBox="0 0 682 508" fill="none" xmlns="http://www.w3.org/2000/svg">
<path d="M613.664 469.06H568.488V469.401H613.664V469.06Z" fill="#EBEBEB"/>
<path d="M451.784 472.773H439.931V473.115H451.784V472.773Z" fill="#EBEBEB"/>
<path d="M567.125 456.389H540.949V456.73H567.125V456.389Z" fill="#EBEBEB"/>
<path d="M130.467 458.683H71.5557V459.024H130.467V458.683Z" fill="#EBEBEB"/>
<path d="M151.253 458.683H142.619V459.024H151.253V458.683Z" fill="#EBEBEB"/>
<path d="M307.105 464.445H179.325V464.786H307.105V464.445Z" fill="#EBEBEB"/>
<path d="M325.178 386.195H61.7894C57.4928 386.195 54.001 382.7 54.001 378.399V7.79627C54.001 3.49535 57.4928 0 61.7894 0H325.178C329.474 0 332.966 3.49535 332.966 7.79627V378.399C332.966 382.7 329.474 386.195 325.178 386.195ZM61.7894 0.341343C57.6838 0.341343 54.342 3.6865 54.342 7.79627V378.399C54.342 382.509 57.6838 385.854 61.7894 385.854H325.178C329.283 385.854 332.625 382.509 332.625 378.399V7.79627C332.625 3.6865 329.283 0.341343 325.178 0.341343H61.7894Z" fill="#EBEBEB"/>
<path d="M620.211 386.195H356.823C352.526 386.195 349.034 382.7 349.034 378.399V7.79627C349.034 3.49535 352.526 0 356.823 0H620.211C624.508 0 627.999 3.49535 627.999 7.79627V378.399C627.999 382.7 624.508 386.195 620.211 386.195ZM356.823 0.341343C352.717 0.341343 349.375 3.6865 349.375 7.79627V378.399C349.375 382.509 352.717 385.854 356.823 385.854H620.211C624.317 385.854 627.658 382.509 627.658 378.399V7.79627C627.658 3.6865 624.317 0.341343 620.211 0.341343H356.823Z" fill="#EBEBEB"/>
<path d="M682 447.091H0V447.432H682V447.091Z" fill="#EBEBEB"/>
<path d="M609.517 53.8228H388.494V447.077H609.517V53.8228Z" fill="#FAFAFA"/>
<path d="M597.445 86.5371H404.849V447.063H597.445V86.5371Z" fill="#EBEBEB"/>
<path d="M592.835 93.6504H502.225V439.949H592.835V93.6504Z" fill="#FAFAFA"/>
<path d="M500.083 94.3608H409.473V440.66H500.083V94.3608Z" fill="#FAFAFA"/>
<path d="M514.296 63.0664H485.147V73.02H514.296V63.0664Z" fill="#F0F0F0"/>
<path d="M292.414 53.8228H71.3916V447.077H292.414V53.8228Z" fill="#FAFAFA"/>
<path d="M280.329 86.5371H87.7324V447.063H280.329V86.5371Z" fill="#EBEBEB"/>
<path d="M275.719 93.6504H185.108V439.949H275.719V93.6504Z" fill="#FAFAFA"/>
<path d="M182.967 94.3608H92.3564V440.66H182.967V94.3608Z" fill="#FAFAFA"/>
<path d="M197.179 63.0664H168.03V73.02H197.179V63.0664Z" fill="#F0F0F0"/>
<path d="M353.576 185.117H327.347V235.69H353.576V185.117Z" fill="#E6E6E6"/>
<path d="M340.741 195.821C345.269 195.821 348.938 199.494 348.938 204.027C348.938 208.56 345.269 212.233 340.741 212.233C336.212 212.233 332.543 208.56 332.543 204.027C332.529 199.508 336.212 195.821 340.741 195.821Z" fill="#F5F5F5"/>
<path d="M345.133 205.379H336.362L340.891 199.194L345.133 205.379Z" fill="#E6E6E6"/>
<path d="M340.741 213.298C345.269 213.298 348.938 216.971 348.938 221.504C348.938 226.037 345.269 229.71 340.741 229.71C336.212 229.71 332.543 226.037 332.543 221.504C332.529 216.984 336.212 213.298 340.741 213.298Z" fill="#F5F5F5"/>
<path d="M345.133 219.401H336.362L340.891 225.573L345.133 219.401Z" fill="#E6E6E6"/>
<path d="M364.352 447.091H317.853C315.834 447.091 314.197 445.452 314.197 443.431V284.284H368.007V443.431C368.007 445.452 366.37 447.091 364.352 447.091Z" fill="#EBEBEB"/>
<path d="M341.928 332.181C351.879 332.181 359.946 327.56 359.946 321.859C359.946 316.158 351.879 311.537 341.928 311.537C331.976 311.537 323.909 316.158 323.909 321.859C323.909 327.56 331.976 332.181 341.928 332.181Z" fill="#E0E0E0"/>
<path d="M370.339 294.824H312.479V285.212C312.479 283.26 314.061 281.689 315.998 281.689H366.807C368.757 281.689 370.326 283.273 370.326 285.212V294.824H370.339Z" fill="#F5F5F5"/>
<path d="M318.343 296.04C317.811 296.04 317.375 296.913 317.375 297.992V442.776C317.375 443.855 317.811 444.728 318.343 444.728C318.875 444.728 319.312 443.855 319.312 442.776V297.992C319.312 296.913 318.875 296.04 318.343 296.04Z" fill="#FAFAFA"/>
<path d="M341 508C487.061 508 605.466 501.08 605.466 492.544C605.466 484.008 487.061 477.088 341 477.088C194.94 477.088 76.5342 484.008 76.5342 492.544C76.5342 501.08 194.94 508 341 508Z" fill="#F5F5F5"/>
<path d="M336.948 424.344C336.948 424.344 334.33 408.109 324.263 398.879C316.407 391.684 308.168 375.436 308.168 375.436" stroke="#263238" stroke-miterlimit="10" stroke-linecap="round" stroke-linejoin="round"/>
<path d="M325.791 403.413C325.791 403.413 315.384 400.887 319.012 408.465C322.627 416.042 330.92 412.793 330.92 412.793C330.92 412.793 337.999 407.195 334.384 400.436C330.77 393.664 325.791 403.413 325.791 403.413Z" fill="#5E9DBC"/>
<path opacity="0.1" d="M334.384 400.436C330.769 393.678 325.791 403.413 325.791 403.413C325.791 403.413 325.041 408.287 330.919 412.793C330.919 412.793 337.999 407.195 334.384 400.436Z" fill="black"/>
<path d="M308.55 375.491C308.55 375.491 301.948 368.214 301.798 375.587C301.648 382.959 308.823 384.953 308.823 384.953C308.823 384.953 315.997 384.612 315.847 377.826C315.711 371.054 308.55 375.491 308.55 375.491Z" fill="#5E9DBC"/>
<path opacity="0.1" d="M315.861 377.839C315.725 371.054 308.564 375.491 308.564 375.491C308.564 375.491 306.231 378.618 308.837 384.967C308.823 384.967 315.998 384.625 315.861 377.839Z" fill="black"/>
<path d="M316.898 389.24C316.898 389.24 314.306 378.959 319.912 382.004C325.518 385.048 323.895 393.664 323.895 393.664C323.895 393.664 320.512 401.242 315.479 398.129C310.432 395.016 316.898 389.24 316.898 389.24Z" fill="#5E9DBC"/>
<path opacity="0.1" d="M315.479 398.129C310.432 395.016 316.898 389.24 316.898 389.24C316.898 389.24 320.267 388.093 323.895 393.664C323.895 393.664 320.512 401.242 315.479 398.129Z" fill="black"/>
<path d="M345.541 424.344C345.541 424.344 349.756 409.939 360.313 401.979C370.871 394.019 375.494 384.284 375.494 384.284" stroke="#263238" stroke-miterlimit="10" stroke-linecap="round" stroke-linejoin="round"/>
<path d="M336.962 382.304C336.962 382.304 341.19 388.79 342.009 400.436C342.827 412.083 343.577 424.344 343.577 424.344" stroke="#263238" stroke-miterlimit="10" stroke-linecap="round" stroke-linejoin="round"/>
<path d="M341.136 391.971C341.136 391.971 338.107 384.011 345.487 386.072C352.866 388.134 350.315 395.043 350.315 395.043C350.315 395.043 345.459 401.242 338.844 399.098C332.242 396.941 341.136 391.971 341.136 391.971Z" fill="#5E9DBC"/>
<path opacity="0.1" d="M338.857 399.085C332.242 396.941 341.135 391.971 341.135 391.971C341.135 391.971 345.691 390.865 350.315 395.029C350.315 395.043 345.473 401.242 338.857 399.085Z" fill="black"/>
<path d="M369.971 393.35C369.971 393.35 366.943 385.39 374.323 387.451C381.702 389.513 379.151 396.422 379.151 396.422C379.151 396.422 374.295 402.621 367.68 400.477C361.078 398.32 369.971 393.35 369.971 393.35Z" fill="#5E9DBC"/>
<path opacity="0.1" d="M367.693 400.463C361.078 398.32 369.971 393.35 369.971 393.35C369.971 393.35 374.527 392.244 379.151 396.408C379.164 396.422 374.309 402.621 367.693 400.463Z" fill="black"/>
<path d="M353.359 410.445C353.359 410.445 351.872 401.87 358.692 405.843C365.512 409.817 361.748 415.865 361.748 415.865C361.748 415.865 355.869 420.617 349.813 416.78C343.77 412.93 353.359 410.445 353.359 410.445Z" fill="#5E9DBC"/>
<path opacity="0.1" d="M349.811 416.78C343.755 412.929 353.358 410.444 353.358 410.444C353.358 410.444 358.009 410.567 361.746 415.865C361.746 415.865 355.868 420.616 349.811 416.78Z" fill="black"/>
<path d="M341.913 405.693C341.913 405.693 339.854 400.259 344.887 401.665C349.92 403.071 348.174 407.782 348.174 407.782C348.174 407.782 344.873 412.001 340.358 410.54C335.844 409.079 341.913 405.693 341.913 405.693Z" fill="#5E9DBC"/>
<path opacity="0.1" d="M340.358 410.54C335.844 409.079 341.913 405.693 341.913 405.693C341.913 405.693 345.023 404.928 348.174 407.782C348.174 407.782 344.873 412.014 340.358 410.54Z" fill="black"/>
<path d="M337.425 381.84C337.425 381.84 340.017 373.539 334.015 375.86C328.014 378.181 329.95 385.24 329.95 385.24C329.95 385.24 333.756 391.521 339.144 389.131C344.532 386.742 337.425 381.84 337.425 381.84Z" fill="#5E9DBC"/>
<path opacity="0.1" d="M339.144 389.118C344.531 386.728 337.425 381.827 337.425 381.827C337.425 381.827 333.769 380.789 329.95 385.226C329.964 385.226 333.769 391.507 339.144 389.118Z" fill="black"/>
<path d="M375.1 381.157C375.1 381.157 372.154 375.969 376.601 376.365C381.047 376.747 380.706 381.99 380.706 381.99C380.706 381.99 378.974 387.069 374.937 386.51C370.899 385.95 375.1 381.157 375.1 381.157Z" fill="#5E9DBC"/>
<path opacity="0.1" d="M374.937 386.51C370.899 385.95 375.1 381.157 375.1 381.157C375.1 381.157 377.474 379.71 380.706 381.99C380.706 381.99 378.974 387.069 374.937 386.51Z" fill="black"/>
<path d="M361.883 399.235C361.883 399.235 372.399 397.514 366.902 391.793C361.405 386.059 354.462 392.394 354.462 392.394C354.462 392.394 349.32 400.477 354.585 405.433C359.877 410.39 361.883 399.235 361.883 399.235Z" fill="#5E9DBC"/>
<path opacity="0.1" d="M354.598 405.433C359.877 410.39 361.896 399.235 361.896 399.235C361.896 399.235 361.268 394.333 354.475 392.394C354.462 392.394 349.32 400.463 354.598 405.433Z" fill="black"/>
<path d="M335.012 413.558C335.012 413.558 332.42 403.276 338.026 406.321C343.632 409.366 342.009 417.981 342.009 417.981C342.009 417.981 338.626 425.559 333.593 422.446C328.547 419.333 335.012 413.558 335.012 413.558Z" fill="#5E9DBC"/>
<path opacity="0.1" d="M333.593 422.446C328.547 419.333 335.012 413.558 335.012 413.558C335.012 413.558 338.381 412.411 342.009 417.981C342.009 417.981 338.626 425.559 333.593 422.446Z" fill="black"/>
<path d="M319.734 475.272V482.14H325.136C325.136 480.434 326.745 479.041 328.737 479.041H356.767C358.758 479.041 360.368 480.434 360.368 482.14H365.769V475.272H319.734Z" fill="#263238"/>
<path d="M365.456 475.941H320.035C316.53 475.941 313.542 469.046 312.997 459.707L311.074 426.324C310.951 424.167 312.669 422.351 314.825 422.351H370.639C372.795 422.351 374.513 424.167 374.39 426.324L372.467 459.707C371.949 469.046 368.962 475.941 365.456 475.941Z" fill="#263238"/>
<path opacity="0.2" d="M365.456 475.941H320.035C316.53 475.941 313.542 469.046 312.997 459.707L311.074 426.324C310.951 424.167 312.669 422.351 314.825 422.351H370.639C372.795 422.351 374.513 424.167 374.39 426.324L372.467 459.707C371.949 469.046 368.962 475.941 365.456 475.941Z" fill="white"/>
<path d="M334.242 133.382V109.697" stroke="#5E9DBC" stroke-width="3" stroke-miterlimit="10" stroke-linecap="round" stroke-linejoin="round"/>
<path d="M305.585 138.769L296.528 128.116" stroke="#5E9DBC" stroke-width="3" stroke-miterlimit="10" stroke-linecap="round" stroke-linejoin="round"/>
<path d="M313.128 147.666L310.438 144.492" stroke="#5E9DBC" stroke-width="3" stroke-miterlimit="10" stroke-linecap="round" stroke-linejoin="round"/>
<path d="M365.64 135.57L355.551 147.473" stroke="#5E9DBC" stroke-width="3" stroke-miterlimit="10" stroke-linecap="round" stroke-linejoin="round"/>
<path d="M371.98 128.116L369.698 130.785" stroke="#5E9DBC" stroke-width="3" stroke-miterlimit="10" stroke-linecap="round" stroke-linejoin="round"/>
<path d="M482.829 460.963L502.484 454.546L510.3 477.662L493.891 483.055L482.829 460.963Z" fill="#CE7A63"/>
<path opacity="0.2" d="M482.843 460.977L502.498 454.546L506.154 465.373L488.121 471.531L482.843 460.977Z" fill="black"/>
<path d="M485.625 481.812C483.811 482.304 481.997 482.522 481.247 481.853C480.824 481.498 480.674 480.897 480.879 480.392C481.001 479.928 481.329 479.545 481.752 479.327C483.934 478.057 489.595 479.573 489.84 479.627C489.977 479.668 490.086 479.791 490.099 479.928C490.113 480.078 490.031 480.214 489.908 480.283C488.531 480.924 487.099 481.43 485.625 481.812ZM482.666 479.641C482.447 479.709 482.229 479.791 482.038 479.887C481.779 480.023 481.602 480.255 481.52 480.528C481.397 481.006 481.52 481.184 481.643 481.293C482.543 482.03 486.13 481.102 488.64 480.051C486.689 479.532 484.671 479.409 482.679 479.668L482.666 479.641Z" fill="#5E9DBC"/>
<path d="M489.8 480.297C489.8 480.297 489.69 480.297 489.649 480.297C487.74 479.983 483.552 477.825 483.416 476.16C483.416 475.764 483.512 475.218 484.412 474.876C485.053 474.603 485.762 474.59 486.403 474.863C488.599 475.873 489.977 479.573 490.045 479.723C490.113 479.833 490.113 479.969 490.045 480.078L489.8 480.297ZM484.848 475.477H484.63C484.057 475.696 484.084 475.941 484.084 476.037C484.098 477.02 487.112 478.822 489.131 479.409C488.558 477.839 487.494 476.487 486.117 475.545C485.721 475.368 485.271 475.341 484.848 475.477Z" fill="#5E9DBC"/>
<path d="M491.395 477.088L507.859 471.585C508.432 471.408 509.045 471.654 509.332 472.186L515.552 482.495C516.111 483.573 514.365 485.567 514.242 485.594C506.276 489.035 485.68 496.258 479.801 498.019C473.922 499.78 471.413 494.182 473.663 492.94C483.743 487.342 486.839 482.863 489.349 478.74C489.786 477.948 490.522 477.361 491.395 477.088Z" fill="#263238"/>
<path d="M389.204 463.667L410.469 465.428L406.854 490.441L389.081 488.994L389.204 463.667Z" fill="#CE7A63"/>
<path opacity="0.2" d="M389.204 463.667L410.469 465.442L408.736 477.457L389.149 475.982L389.204 463.667Z" fill="black"/>
<path d="M429.837 390.551C438.13 358.547 461.986 286.701 445.373 257.345L386.066 262.889C386.066 262.889 385.057 352.826 384.648 382.768C384.211 413.899 386.898 472.719 386.898 472.719L411.259 474.576C411.273 474.562 427.9 426.474 429.837 390.551Z" fill="#407BFF"/>
<path d="M429.837 390.551C438.13 358.547 461.986 286.701 445.373 257.345L386.066 262.889C386.066 262.889 385.057 352.826 384.648 382.768C384.211 413.899 386.898 472.719 386.898 472.719L411.259 474.576C411.273 474.562 427.9 426.474 429.837 390.551Z" fill="#265D72"/>
<path opacity="0.2" d="M433.534 297.692C433.806 305.092 446.205 334.871 445.4 342.531C442.495 352.593 436.262 368.951 432.92 378.727C428.541 351.051 433.534 297.692 433.534 297.692Z" fill="black"/>
<path d="M490.154 380.188C493.045 347.828 502.007 272.678 490.317 258.861L428.051 260.308C428.051 260.308 437.626 354.942 443.45 384.803C449.506 415.851 485.025 469.456 485.025 469.456L506.917 462.124C506.917 462.124 497.492 417.121 490.154 380.188Z" fill="#407BFF"/>
<path d="M490.154 380.188C493.045 347.828 502.007 272.678 490.317 258.861L428.051 260.308C428.051 260.308 437.626 354.942 443.45 384.803C449.506 415.851 485.025 469.456 485.025 469.456L506.917 462.124C506.917 462.124 497.492 417.121 490.154 380.188Z" fill="#265D72"/>
<path d="M382.821 483.969C380.952 483.778 379.179 483.314 378.729 482.413C378.47 481.921 378.538 481.321 378.92 480.911C379.206 480.529 379.643 480.283 380.107 480.242C382.603 479.846 387.336 483.314 387.54 483.464C387.663 483.56 387.704 483.696 387.677 483.846C387.636 483.983 387.513 484.092 387.363 484.106C385.849 484.201 384.321 484.161 382.821 483.969ZM380.843 480.884C380.611 480.856 380.393 480.856 380.161 480.884C379.875 480.911 379.616 481.061 379.438 481.293C379.138 481.703 379.206 481.908 379.275 482.044C379.847 483.055 383.53 483.491 386.258 483.423C384.635 482.235 382.794 481.375 380.843 480.897V480.884Z" fill="#5E9DBC"/>
<path d="M387.253 484.092C387.253 484.092 387.144 484.051 387.103 484.038C385.439 483.055 382.316 479.518 382.793 477.921C382.93 477.552 383.23 477.074 384.184 477.088C384.88 477.061 385.548 477.32 386.053 477.798C387.731 479.546 387.676 483.478 387.676 483.642C387.704 483.765 387.649 483.887 387.553 483.969L387.253 484.092ZM384.389 477.784L384.184 477.702C383.571 477.702 383.502 477.934 383.475 478.016C383.121 478.945 385.289 481.703 386.953 483C386.981 481.334 386.49 479.682 385.535 478.317C385.235 478.003 384.826 477.812 384.389 477.784Z" fill="#5E9DBC"/>
<path d="M389.899 481.662L408.027 482.508C408.627 482.549 409.105 483.014 409.186 483.601L411.246 495.466C411.287 495.889 411.451 496.312 411.301 496.695C411.001 497.418 410.319 497.896 409.527 497.923C400.184 498.169 377.419 497.459 371.513 496.981C365.388 496.49 365.088 490.373 367.639 490.018C379.056 488.461 383.57 485.403 387.39 482.481C388.099 481.894 388.986 481.607 389.899 481.662Z" fill="#263238"/>
<path d="M417.452 163.599C415.707 167.818 413.77 171.86 411.737 175.915C409.691 179.943 407.577 183.929 405.354 187.875C403.144 191.821 400.825 195.74 398.425 199.631C395.997 203.55 393.555 207.359 390.677 211.455L389.804 212.698C388.563 214.473 386.899 215.852 385.098 216.767C384.075 217.285 382.875 217.75 381.866 217.995C381.375 218.118 380.884 218.228 380.379 218.309L379.629 218.419L379.001 218.473C377.255 218.596 375.932 218.446 374.787 218.255C372.536 217.832 371.308 217.272 370.135 216.753C367.953 215.702 366.589 214.732 365.375 213.79C363.002 211.92 361.269 210.199 359.633 208.438C356.4 204.956 353.767 201.447 351.258 197.87C348.775 194.293 346.524 190.62 344.438 186.865C342.378 183.056 340.414 179.273 338.804 175.136C337.781 172.529 339.063 169.593 341.669 168.569C343.142 167.996 344.724 168.159 346.006 168.883L346.143 168.965C349.825 171.081 353.276 173.443 356.727 175.724L366.753 182.632C369.999 184.899 373.245 187.111 376.246 188.968C377.733 189.855 379.206 190.715 380.243 191.098C380.734 191.289 381.156 191.343 380.856 191.098C380.624 190.961 380.365 190.756 379.138 190.483C378.51 190.36 377.692 190.251 376.464 190.333L376.028 190.374L375.469 190.442C375.1 190.497 374.718 190.579 374.364 190.674C373.6 190.865 372.631 191.207 371.854 191.63L366.275 196.941L371.568 185.213C373.395 181.185 375.264 177.157 377.187 173.157C379.097 169.142 381.102 165.156 383.162 161.196C385.235 157.25 387.376 153.304 389.681 149.522L389.709 149.481C394.21 142.108 403.812 139.787 411.178 144.279C417.821 148.334 420.358 156.608 417.452 163.599Z" fill="#CE7A63"/>
<path d="M417.111 145.808C421.844 168.351 406.336 191.589 406.336 191.589C397.892 193.432 380.188 180.721 376.082 172.269C376.082 172.269 379.669 156.267 389.436 145.726C398.479 135.964 414.342 132.605 417.111 145.808Z" fill="#407BFF"/>
<path d="M417.111 145.808C421.844 168.351 406.336 191.589 406.336 191.589C397.892 193.432 380.188 180.721 376.082 172.269C376.082 172.269 379.669 156.267 389.436 145.726C398.479 135.964 414.342 132.605 417.111 145.808Z" fill="#497B8E"/>
<path d="M345.297 168.61L338.872 174.303L329.993 171.327L325.041 168.337C323.364 167.326 322.764 165.032 323.609 162.93L325.751 157.659C326.733 155.256 329.243 153.959 331.33 154.792L336.022 156.663C337.386 157.209 338.6 158.083 339.541 159.202L345.297 168.61Z" fill="#CE7A63"/>
<path d="M414.698 135.295C432.034 131.772 454.404 127.103 472.804 127.894C484.289 128.386 492.964 134.68 493.837 158.042C494.342 171.491 490.495 199.536 490.823 212.643C491.641 245.74 491.736 260.609 491.736 260.609C491.736 260.609 478.56 257.345 385.645 262.602C382.016 197.993 391.892 168.364 399.926 148.116C405.382 134.339 407.878 136.687 414.698 135.295Z" fill="#5E9DBC"/>
<path opacity="0.2" d="M423.795 146.928L424.231 148.184L426.55 156.895L434.366 145.439L423.795 146.928Z" fill="black"/>
<path d="M420.685 137.179C422.731 134.749 425.213 135.8 425.991 132.359C426.25 129.915 425.65 127.43 423.999 124.795L449.479 107.673C449.902 117.627 450.256 125.478 455.017 128.987C457.008 136.237 444.05 144.921 425.704 146.805C414.07 148.02 417.739 140.688 420.685 137.179Z" fill="#CE7A63"/>
<path opacity="0.2" d="M424.49 125.614L445.209 118.241C440.667 127.212 431.447 132.755 426.059 131.226C426.032 129.396 425.541 127.553 424.49 125.614Z" fill="black"/>
<path d="M428.596 76.3242C442.346 71.8595 455.59 82.3592 454.103 95.3439C452.617 108.342 451.307 117.135 442.918 122.31C426.278 132.605 416.934 125.123 414.234 111.96C411.792 100.109 414.643 80.8573 428.596 76.3242Z" fill="#CE7A63"/>
<path d="M425.377 114.104C424.831 114.213 424.245 114.295 423.617 114.322C423.426 114.336 423.263 114.186 423.249 113.981C423.235 113.79 423.385 113.612 423.59 113.612C428.855 113.367 431.146 109.571 431.174 109.53C431.269 109.366 431.487 109.298 431.651 109.407C431.815 109.503 431.869 109.721 431.774 109.885C431.678 110.049 429.755 113.216 425.377 114.104Z" fill="#263238"/>
<path d="M433.002 96.559C433.534 96.7229 434.08 96.955 434.639 97.2281C434.816 97.31 434.884 97.5285 434.803 97.706C434.721 97.8835 434.503 97.9517 434.325 97.8698C429.824 95.6988 429.047 98.3067 428.528 98.6617C428.365 98.771 428.146 98.7027 428.051 98.5388C427.955 98.375 428.01 98.1565 428.174 98.061C428.324 97.9654 429.278 95.4531 433.002 96.559Z" fill="#263238"/>
<path opacity="0.1" d="M437.395 97.6515C436.563 97.4467 435.662 97.5696 434.912 97.9929C435.049 98.1567 435.267 98.3206 435.485 98.3479C436.222 98.4571 436.808 98.0885 437.395 97.6515Z" fill="black"/>
<path opacity="0.1" d="M437.612 96.0679C436.752 96.0952 435.92 96.4638 435.32 97.0782C435.498 97.2011 435.757 97.2831 435.961 97.2557C436.684 97.1602 437.162 96.655 437.612 96.0679Z" fill="black"/>
<path d="M418.612 98.607C419.144 98.7708 419.689 99.003 420.248 99.276C420.426 99.358 420.494 99.5764 420.412 99.7539C420.33 99.9314 420.112 99.9997 419.935 99.9178C415.433 97.7468 414.656 100.355 414.138 100.71C413.974 100.819 413.756 100.751 413.66 100.587C413.565 100.423 413.619 100.204 413.783 100.109C413.933 99.9997 414.888 97.501 418.612 98.607Z" fill="#263238"/>
<path d="M422.254 85.1037C420.317 85.0763 418.503 84.6258 418.503 84.6258C415.352 81.3762 413.469 77.0889 412.938 72.5832C417.248 73.5936 421.694 74.0988 426.046 73.2795C434.966 71.6138 442.223 70.6717 449.793 73.3751C453.121 74.563 456.449 76.1741 454.226 80.161C454.226 80.161 428.569 83.8475 422.254 85.1037Z" fill="#263238"/>
<path d="M449.957 116.098C449.957 116.098 450.366 106.049 445.196 104.178C441.295 102.758 447.079 93.8968 442.236 92.9137C440.163 92.2583 440.491 85.3905 440.491 83.7521C440.491 83.7521 448.606 80.5298 454.212 80.1748C454.553 81.9634 455.549 86.2507 456.245 90.0874C456.245 90.0874 454.226 100.519 449.957 116.098Z" fill="#263238"/>
<path d="M457.35 106.404C455.686 109.244 452.862 111.046 450.23 111.688C446.26 112.643 444.392 109.052 445.592 105.38C446.67 102.075 450.039 97.597 453.967 98.2796C457.854 98.9487 459.246 103.154 457.35 106.404Z" fill="#CE7A63"/>
<path d="M422.908 99.6587L422.744 108.22C422.744 108.22 419.266 108.834 417.37 106.841C422.826 103.632 422.908 99.6587 422.908 99.6587Z" fill="#BA4D3C"/>
<path d="M433.534 93.3366C433.63 93.282 433.712 93.1864 433.766 93.0908C433.943 92.7631 433.807 92.3672 433.48 92.1897C430.179 90.4693 427.451 91.9439 427.342 91.9985C427.014 92.176 426.905 92.5856 427.083 92.9133C427.26 93.241 427.669 93.3502 427.996 93.1727C428.092 93.1181 430.22 91.9985 432.852 93.3775C433.07 93.4731 433.33 93.4595 433.534 93.3366Z" fill="#263238"/>
<path d="M413.66 95.6854C413.865 95.7537 414.097 95.7264 414.288 95.5762C416.593 93.7466 418.898 94.4702 418.994 94.5112C419.348 94.6204 419.717 94.4429 419.839 94.0879C419.949 93.7329 419.771 93.3643 419.417 93.2414C419.294 93.2004 416.348 92.231 413.456 94.5248C413.169 94.7569 413.115 95.1802 413.347 95.4669C413.429 95.5625 413.538 95.6444 413.66 95.6854Z" fill="#263238"/>
<path d="M412.133 151.625C412.351 149.754 413.36 147.801 413.701 145.931C414.683 140.51 420.33 131.117 426.032 129.97C425.882 135.144 423.522 146.914 423.522 146.914C421.067 147.255 415.052 148.116 412.133 151.625Z" fill="#263238"/>
<path d="M452.07 125.669C451.429 129.328 438.28 143.023 434.079 145.439C440.463 145.139 444.841 146.259 449.288 149.112C455.221 143.023 456.749 128.372 456.858 128.249C457.103 126.338 453.912 125.054 452.07 125.669Z" fill="#263238"/>
<path d="M482.256 166.493C498.351 160.786 492.732 158.192 495.078 157.331C495.869 155.447 495.951 154.765 496.046 154.423C496.169 153.891 496.264 153.345 496.319 152.798L496.387 152.129L496.415 151.488V150.996L496.401 150.436L496.36 149.713L496.319 149.289L496.237 148.702C496.224 148.593 496.237 148.648 496.278 148.771L496.605 149.795L497.519 152.539L499.579 158.56C500.97 162.67 502.443 166.848 503.821 171.067C504.517 173.17 505.253 175.272 505.935 177.389L506.999 180.666C507.477 182.058 507.886 183.506 508.268 184.967C509.795 190.797 510.3 197.46 509.277 203.986C509.141 204.874 509.059 205.27 508.95 205.857L508.636 207.536L507.995 210.854L506.658 217.476C505.731 221.886 504.762 226.283 503.753 230.693C501.707 239.486 497.124 253.426 494.355 262.151C493.045 266.288 489.24 268.896 485.107 267.572C481.956 266.575 481.601 258.26 481.37 255.16C480.715 246.012 480.592 236.933 480.674 227.88C480.715 223.347 480.824 218.828 480.947 214.308L481.206 207.536L481.52 200.982C481.52 198.566 480.879 196.122 479.883 193.336C479.624 192.654 479.337 191.957 479.01 191.247L477.673 188.216C476.746 186.141 475.9 184.025 475.013 181.935C473.24 177.73 471.59 173.47 469.98 169.115C469.203 166.916 468.398 164.718 467.661 162.383C467.293 161.209 466.925 160.021 466.543 158.697C466.366 158.041 466.175 157.331 465.97 156.471C465.875 156.048 465.752 155.557 465.629 154.887C465.561 154.505 465.493 154.137 465.411 153.467L465.343 152.839C465.315 152.566 465.302 152.443 465.274 151.911L465.261 151.242V150.709L465.288 150.013L465.356 149.303C465.424 148.743 465.52 148.184 465.643 147.624C465.738 147.255 465.834 146.559 466.625 144.661C468.971 143.787 463.365 141.179 479.474 135.458C488.04 134.68 495.61 141.015 496.387 149.59C497.151 158.137 490.822 165.729 482.256 166.493Z" fill="#CE7A63"/>
<path d="M482.761 258.861L491.054 260.568C498.569 265.346 490.876 275.75 490.876 275.75L488.789 281.403C488.08 283.315 485.87 284.393 483.552 283.929L477.741 282.782C475.095 282.263 473.281 279.942 473.717 277.635L474.699 272.474C474.986 270.972 475.64 269.565 476.609 268.377L482.761 258.861Z" fill="#CE7A63"/>
<path d="M488.244 134.339C500.875 152.881 504.366 165.797 504.366 165.797C504.366 165.797 487.535 185.131 472.108 179.765C472.108 179.765 462.505 162.944 462.274 148.512C462.055 135.158 479.596 121.641 488.244 134.339Z" fill="#407BFF"/>
<path d="M488.244 134.339C500.875 152.881 504.366 165.797 504.366 165.797C504.366 165.797 487.535 185.131 472.108 179.765C472.108 179.765 462.505 162.944 462.274 148.512C462.055 135.158 479.596 121.641 488.244 134.339Z" fill="#71BDDB"/>
<path d="M242.191 140.401C241.564 145.931 240.704 151.406 239.763 156.867C239.3 159.598 238.822 162.329 238.29 165.06C237.758 167.777 237.281 170.507 236.694 173.224L233.339 189.582C232.848 192.067 232.561 194.128 232.507 196.245C232.452 198.347 232.616 200.546 232.971 202.88L232.807 202.102C233.598 205.707 234.335 209.325 235.017 212.957C235.699 216.589 236.299 220.248 236.913 223.893L237.731 229.396L238.44 234.926C238.863 238.626 239.272 242.326 239.436 246.094C239.559 248.825 237.458 251.146 234.73 251.269C232.698 251.365 230.911 250.218 230.065 248.511C228.401 245.125 226.983 241.684 225.564 238.243L223.518 233.055L221.581 227.839C220.354 224.344 219.112 220.862 217.967 217.34C216.807 213.831 215.716 210.294 214.679 206.758L214.611 206.54L214.516 205.98C213.956 202.839 213.588 199.481 213.588 196.026C213.575 192.585 214.011 189.104 214.529 186.141C215.061 183.096 215.566 180.611 215.989 177.962L217.366 169.743C217.803 166.998 218.335 164.268 218.826 161.523C219.317 158.779 219.863 156.048 220.408 153.331C221.513 147.87 222.686 142.435 224.105 137.029C225.387 132.1 230.434 129.137 235.358 130.434C239.859 131.581 242.71 135.895 242.191 140.401Z" fill="#FFB573"/>
<path d="M235.89 127.321C235.89 127.321 226.587 125.764 221.2 135.923C217.23 143.391 212.211 170.822 213.125 170.986C214.039 171.149 239.122 176.42 239.122 176.42C239.122 176.42 255.163 127.13 235.89 127.321Z" fill="#407BFF"/>
<path d="M235.89 127.321C235.89 127.321 226.587 125.764 221.2 135.923C217.23 143.391 212.211 170.822 213.125 170.986C214.039 171.149 239.122 176.42 239.122 176.42C239.122 176.42 255.163 127.13 235.89 127.321Z" fill="#497B8E"/>
<path d="M244.034 110.691C238.278 106.663 232.999 101.516 230.435 94.9754C227.871 88.4216 228.553 80.284 233.449 75.2458C233.845 74.8362 234.377 74.4266 234.909 74.6177C235.332 74.7679 235.55 75.2321 235.714 75.6417C240.16 87.0016 238.701 99.7132 244.034 110.691Z" fill="#263238"/>
<path d="M244.688 101.802C245.615 110.049 245.752 123.635 239.627 128.604C239.627 128.604 239.259 136.933 261.533 147.788C270.795 136.565 264.998 130.68 264.998 130.68C256.077 127.772 257.1 122.57 259.187 116.357L244.688 101.802Z" fill="#FFB573"/>
<path d="M266.348 128.509C269.758 128.727 273.127 129.656 276.046 131.431C282.484 135.363 284.98 141.562 284.98 152.403C284.98 166.876 285.772 160.431 284.98 168.2L284.408 227.812L228.906 224.849C228.906 224.849 227.42 201.174 227.038 187.561C226.41 164.623 217.981 153.837 222.305 136.619C223.587 131.526 230.352 126.748 239.055 126.748L266.348 128.509Z" fill="#5E9DBC"/>
<path d="M236.954 126.734L237.2 125.054C237.377 123.866 238.468 123.033 239.668 123.17L258.464 125.368L264.043 128.481C264.043 128.495 247.607 130.557 236.954 126.734Z" fill="#407BFF"/>
<path d="M236.954 126.734L237.2 125.054C237.377 123.866 238.468 123.033 239.668 123.17L258.464 125.368L264.043 128.481C264.043 128.495 247.607 130.557 236.954 126.734Z" fill="#71BDDB"/>
<path d="M200.876 475.245L212.565 479.546L242.232 413.735L223.764 406.949L200.876 475.245Z" fill="#FFB573"/>
<path opacity="0.2" d="M242.233 413.735L217.203 469.251L204.3 464.991L223.764 406.949L242.233 413.735Z" fill="black"/>
<path d="M217.381 481.13C218.895 481.676 220.423 481.977 221.132 481.472C221.378 481.294 221.651 480.926 221.5 480.229C221.419 479.833 221.187 479.506 220.818 479.246C219.032 478.004 214.149 478.905 213.944 478.946C213.821 478.973 213.739 479.069 213.712 479.192C213.698 479.314 213.753 479.437 213.862 479.506C214.571 479.915 215.963 480.625 217.381 481.13ZM219.986 479.478C220.177 479.547 220.355 479.628 220.505 479.738C220.737 479.901 220.873 480.093 220.928 480.325C221.009 480.748 220.887 480.898 220.778 480.966C219.986 481.54 216.999 480.489 214.912 479.396C216.181 479.219 218.609 478.987 219.986 479.478Z" fill="#5E9DBC"/>
<path d="M213.916 479.519C213.957 479.533 213.998 479.533 214.039 479.533C215.662 479.396 219.304 477.812 219.522 476.392C219.577 476.051 219.481 475.587 218.731 475.232C218.185 474.972 217.612 474.945 217.026 475.163C215.13 475.873 213.793 478.986 213.739 479.109C213.698 479.205 213.711 479.314 213.766 479.41C213.807 479.464 213.861 479.505 213.916 479.519ZM218.335 475.71C218.39 475.723 218.444 475.751 218.499 475.778C218.99 476.01 218.949 476.215 218.949 476.297C218.826 477.157 216.262 478.495 214.53 478.864C214.98 477.976 216.017 476.201 217.258 475.737C217.626 475.587 217.981 475.573 218.335 475.71Z" fill="#5E9DBC"/>
<path d="M213.193 477.403L200.317 472.801C199.84 472.624 199.308 472.815 199.049 473.252L193.347 483.042C192.761 484.052 193.252 485.39 194.37 485.772C199.035 487.356 205.841 489.472 211.679 491.561C218.499 494.005 214.53 492.995 222.537 495.862C227.379 497.596 230.298 493.118 228.415 491.944C219.836 486.605 222.127 487.179 215.744 479.341C215.048 478.509 214.216 477.771 213.193 477.403Z" fill="#263238"/>
<path d="M270.481 224.835L268.804 316.534C268.435 356.717 256.023 394.947 238.973 431.334L222.837 465.769L201.913 458.874L228.129 363.243L230.257 283C225.074 271.381 223.437 259.052 225.115 249.453C226.11 243.746 227.174 238.052 227.938 232.304L228.934 224.835H270.481Z" fill="#263238"/>
<path opacity="0.2" d="M270.481 224.835L268.804 316.534C268.435 356.717 256.023 394.947 238.973 431.334L222.837 465.769L201.913 458.874L228.129 363.243L230.257 283C225.074 271.381 223.437 259.052 225.115 249.453C226.11 243.746 227.174 238.052 227.938 232.304L228.934 224.835H270.481Z" fill="black"/>
<path d="M199.662 458.778L224.378 468.076C224.814 468.24 225.292 468.063 225.51 467.653L230.12 459.024C230.393 458.519 230.134 457.877 229.575 457.713L201.422 448.975C200.876 448.811 200.317 449.166 200.235 449.726L199.048 457.795C199.007 458.205 199.253 458.628 199.662 458.778Z" fill="#263238"/>
<path d="M271.969 487.192H285.486L291.146 409.052H269.786L271.969 487.192Z" fill="#FFB573"/>
<path opacity="0.2" d="M291.146 409.052L286.359 475.149H271.641L269.786 409.052H291.146Z" fill="black"/>
<path d="M290.177 485.895C291.746 485.895 293.26 485.676 293.765 484.966C293.942 484.721 294.078 484.297 293.737 483.697C293.546 483.355 293.233 483.137 292.823 483.014C290.791 482.454 286.508 484.898 286.331 485.007C286.222 485.062 286.167 485.185 286.194 485.308C286.208 485.431 286.304 485.526 286.426 485.54C287.204 485.704 288.704 485.895 290.177 485.895ZM292.114 483.519C292.319 483.519 292.51 483.546 292.673 483.587C292.946 483.656 293.124 483.792 293.246 483.997C293.451 484.352 293.383 484.529 293.301 484.639C292.728 485.431 289.645 485.444 287.367 485.13C288.5 484.529 290.682 483.519 292.114 483.519Z" fill="#5E9DBC"/>
<path d="M286.481 485.554C286.522 485.554 286.563 485.54 286.604 485.526C288.077 484.857 291.009 482.222 290.777 480.829C290.723 480.502 290.491 480.106 289.7 480.024C289.1 479.969 288.568 480.133 288.09 480.515C286.535 481.799 286.208 485.089 286.194 485.226C286.181 485.335 286.235 485.431 286.317 485.485C286.358 485.526 286.413 485.554 286.481 485.554ZM289.454 480.584C289.509 480.584 289.564 480.584 289.632 480.597C290.15 480.652 290.191 480.857 290.191 480.925C290.327 481.758 288.336 483.833 286.836 484.748C286.986 483.779 287.422 481.813 288.445 480.98C288.759 480.707 289.1 480.584 289.454 480.584Z" fill="#5E9DBC"/>
<path d="M284.79 483.847H272.118C271.641 483.847 271.232 484.189 271.136 484.68L268.845 495.562C268.613 496.695 269.418 497.76 270.509 497.733C275.078 497.651 281.68 497.364 287.436 497.364C294.147 497.364 299.957 497.747 307.828 497.747C312.588 497.747 313.911 492.667 311.92 492.203C302.849 490.114 295.429 489.882 287.586 484.776C286.727 484.243 285.786 483.847 284.79 483.847Z" fill="#263238"/>
<path d="M237.295 224.85L228.906 224.836C227.597 258.916 240.678 276.734 241.523 278.454L245.07 285.65C248.616 292.845 262.829 363.899 262.829 363.899C259.937 387.547 264.684 411.933 266.212 435.704L268.626 471.012H290.641L297.748 384.598C299.152 373.238 299.316 358.806 298.075 347.433C285.049 227.785 284.435 224.822 284.435 224.822L237.295 224.85Z" fill="#263238"/>
<path d="M266.853 472.828L293.247 472.104C293.711 472.091 294.092 471.736 294.133 471.272L295.156 461.536C295.211 460.963 294.734 460.472 294.161 460.526L264.794 463.066C264.234 463.12 263.839 463.653 263.975 464.213L265.926 472.132C266.035 472.555 266.417 472.842 266.853 472.828Z" fill="#263238"/>
<path opacity="0.2" d="M250.567 107.673L259.079 116.357C258.56 117.791 258.178 119.279 257.933 120.781C254.482 120.003 249.271 116.603 248.835 112.766C248.985 110.95 249.585 109.203 250.567 107.673Z" fill="black"/>
<path d="M269.158 77.5942C268.94 73.7165 266.948 69.9754 263.852 67.6406C264.206 69.32 263.865 70.74 263.129 72.2829C265.189 74.1125 267.098 75.7646 269.158 77.5942Z" fill="#263238"/>
<path d="M236.776 89.9781C239.204 102.935 239.968 108.452 247.388 114.309C258.559 123.143 273.918 117.299 275.405 103.905C276.728 91.8213 272.513 72.6105 259.091 69.1015C249.53 66.4937 239.668 72.1463 237.063 81.7176C236.312 84.4073 236.217 87.2473 236.776 89.9781Z" fill="#FFB573"/>
<path d="M259.283 90.7833C259.433 91.8483 260.101 92.6402 260.783 92.5583C261.465 92.4764 261.929 91.5343 261.806 90.4693C261.683 89.4043 260.988 88.6124 260.306 88.6943C259.637 88.7762 259.214 89.7729 259.283 90.7833Z" fill="#263238"/>
<path d="M271.273 89.2956C271.409 90.3742 272.091 91.1525 272.773 91.0706C273.455 90.9886 273.919 90.0465 273.796 88.9815C273.673 87.9166 272.978 87.1246 272.296 87.2202C271.614 87.3295 271.15 88.2443 271.273 89.2956Z" fill="#263238"/>
<path d="M267.999 88.9678C269.963 92.0672 272.337 94.6204 275.051 97.0781C273.728 98.4434 271.886 99.4402 269.99 99.3309L267.999 88.9678Z" fill="#ED893E"/>
<path d="M254.046 86.6875C254.291 86.7967 254.591 86.7421 254.769 86.5373C256.324 85.1719 258.383 84.5302 260.443 84.7486C260.797 84.7896 261.111 84.5438 261.152 84.2025C261.193 83.8611 260.948 83.5608 260.62 83.5061C260.607 83.5061 260.607 83.5061 260.593 83.5061C258.124 83.2194 255.655 84.025 253.827 85.718C253.609 85.9775 253.623 86.3734 253.882 86.5919C253.923 86.6328 253.978 86.6738 254.046 86.6875Z" fill="#263238"/>
<path d="M273.605 82.6867C273.824 82.6321 274.015 82.4819 274.083 82.2634C274.192 81.9357 274.015 81.5807 273.687 81.4578C271.764 80.7342 269.609 81.0209 267.945 82.2088C267.672 82.3999 267.617 82.7822 267.808 83.0417C267.822 83.0553 267.822 83.069 267.836 83.0826C268.04 83.3557 268.436 83.3967 268.709 83.1919C268.709 83.1919 268.709 83.1919 268.722 83.1919C270.059 82.3044 271.737 82.1132 273.237 82.673C273.346 82.714 273.483 82.714 273.605 82.6867Z" fill="#263238"/>
<path d="M248.548 78.6318C247.307 82.9464 246.857 88.1621 246.407 92.6269C244.879 93.1048 245.738 93.0092 244.211 93.4871C244.47 96.0267 245.452 98.4297 246.911 100.532C246.393 101.119 242.997 101.693 242.233 101.543C241.442 98.6209 238.564 96.4226 235.549 96.3543C233.626 91.3025 233.08 85.7318 233.994 80.4068C238.7 80.0109 243.897 79.5603 248.548 78.6318Z" fill="#263238"/>
<path d="M264.562 67.2992C266.54 70.6853 265.585 75.4777 262.475 77.8535C262.488 76.5154 262.448 75.0818 262.461 73.7437C260.906 76.1058 258.942 78.1948 256.664 79.8742C256.814 78.5635 257.005 77.5395 257.142 76.2287C255.3 78.4269 252.968 80.2019 250.362 81.3761C251.317 79.9698 252.136 78.3177 252.381 76.6383C250.09 79.3281 247.062 81.5536 243.747 82.7688C244.388 81.895 244.92 80.7208 244.906 79.6421C242.083 80.4204 239.246 81.144 236.395 81.8267C235.481 82.0452 234.472 82.2363 233.64 81.7858C232.289 81.0485 232.317 79.096 232.74 77.6214C234.458 71.7639 240.242 67.3538 246.339 67.2446C248.535 67.2036 250.553 67.0261 252.654 66.3844C254.755 65.729 256.869 65.019 259.065 64.978C261.261 64.8961 263.457 65.4013 264.562 67.2992Z" fill="#263238"/>
<path d="M234.485 100.464C235.603 102.703 237.54 104.396 239.9 105.202C243.051 106.226 244.783 103.441 244.019 100.368C243.324 97.6104 240.855 93.7601 237.622 94.0058C235.29 94.2653 233.612 96.3679 233.871 98.7027C233.953 99.3308 234.158 99.9315 234.485 100.464Z" fill="#FFB573"/>
<path d="M328.029 174.672L336.158 169.265L339.514 166.384C339.514 166.384 331.712 157.168 330.716 156.554C330.716 156.554 324.919 159.926 322.927 165.197L321.495 170.221L328.029 174.672Z" fill="#FFB573"/>
<path d="M336.745 168.61L330.334 156.909L332.626 155.543C333.498 154.847 334.767 155.079 335.34 156.035L340.346 161.087C341.151 162.425 341.778 164.268 340.714 165.415L336.745 168.61Z" fill="#FFB573"/>
<path opacity="0.1" d="M259.773 145.139C259.773 145.139 260.333 184.598 266.143 184.557C271.954 184.516 281.952 177.157 280.397 167.395C278.829 157.632 259.773 145.139 259.773 145.139Z" fill="black"/>
<path d="M282.989 139.623C284.162 143.323 285.213 147.05 286.236 150.805C287.231 154.56 288.227 158.301 289.141 162.083C290.069 165.851 290.969 169.634 291.814 173.429C292.701 177.211 293.492 181.021 294.283 184.844L293.956 183.915C293.819 183.765 293.588 183.615 293.383 183.56C293.178 183.492 292.987 183.506 292.837 183.574C292.687 183.656 292.551 183.752 292.469 183.888C292.333 183.984 292.074 184.134 292.087 184.202C292.074 184.27 292.169 184.284 292.333 184.202L292.933 183.724C295.988 181.854 299.112 180.092 302.194 178.29C305.277 176.474 308.442 174.767 311.565 172.992C314.716 171.272 317.867 169.538 321.072 167.886C324.25 166.206 327.483 164.582 330.743 163.012C332.421 162.206 334.439 162.916 335.231 164.609C335.858 165.92 335.558 167.435 334.603 168.418C332.066 171.013 329.488 173.539 326.883 176.024C324.291 178.522 321.631 180.939 318.985 183.383C316.298 185.772 313.666 188.216 310.951 190.551C308.237 192.9 305.564 195.289 302.822 197.583L303.422 197.105C302.617 197.869 301.676 198.634 300.53 199.33C299.426 200.013 297.966 200.682 296.575 201.051C293.983 201.774 291.214 201.884 288.568 201.351C285.908 200.846 283.385 199.617 281.203 197.91C279.034 196.176 277.274 193.883 276.128 191.37L275.801 190.442C274.369 186.824 272.95 183.192 271.6 179.546C270.209 175.914 268.886 172.255 267.59 168.596C266.267 164.937 265.039 161.264 263.812 157.577C262.611 153.891 261.425 150.191 260.374 146.463C258.601 140.183 262.257 133.656 268.531 131.881C274.683 130.092 281.066 133.574 282.989 139.623Z" fill="#FFB573"/>
<path d="M268.272 131.485C268.272 131.485 258.874 133.779 259.515 142.217C260.156 150.655 266.744 177.526 267.631 177.266C268.531 177.02 293.519 168.61 293.519 168.61C293.519 168.61 285.499 122.842 268.272 131.485Z" fill="#5E9DBC"/>
<path d="M272.459 102.689C272.459 102.689 269.09 101.733 259.501 101.528C260.428 104.792 262.379 107.44 267.289 107.55C269.731 107.864 272.023 105.898 272.418 103.153C272.432 102.989 272.445 102.839 272.459 102.689Z" fill="#263238"/>
<path d="M265.175 104.901C267.071 104.819 268.913 105.42 270.44 106.594C269.486 107.236 268.394 107.55 267.317 107.495C265.421 107.577 263.579 106.977 262.065 105.802C262.993 105.147 264.084 104.833 265.175 104.901Z" fill="#ED893E"/>
<path d="M272.022 102.58C271.777 103.386 271.163 103.986 270.427 104.15C267.576 104.068 264.752 103.741 261.983 103.14C261.083 103.017 260.306 102.403 259.924 101.501C264.002 101.515 268.04 101.87 272.022 102.58Z" fill="white"/>
</svg>
