<svg width="40" height="40" viewBox="0 0 40 40" fill="none" xmlns="http://www.w3.org/2000/svg">
<g clip-path="url(#clip0)">
<path d="M31.81 8.42999C32.28 7.90999 32.68 7.45999 33.11 6.98999C35.34 8.51999 37.53 10.01 39.71 11.53C39.88 11.65 39.99 11.94 39.99 12.15C40 19.14 40.01 26.14 39.99 33.13C39.99 34.96 38.3 36.39 36.25 36.4C34.16 36.41 32.48 34.98 32.46 33.11C32.43 30.02 32.45 26.93 32.45 23.84C32.45 22.6 31.63 21.75 30.27 21.6C30.27 26.24 30.27 30.88 30.27 35.52C30.31 35.54 30.35 35.58 30.38 35.58C31.94 35.48 32.59 36.09 32.47 37.56C32.42 38.17 32.45 38.8 32.47 39.41C32.48 39.84 32.27 40.02 31.8 40C31.65 39.99 31.5 40 31.35 40C21.27 40 11.2 40 1.12 40C0 40 0 40 0 39C0 38.4 0 37.81 0 37.21C0.01 36.06 0.49 35.63 1.81 35.59C1.93 35.59 2.05 35.58 2.24 35.56C2.24 35.27 2.24 35.01 2.24 34.75C2.24 25.18 2.24 15.6 2.24 6.02999C2.24 3.28999 3.77 1.20999 6.47 0.369991C7.21 0.139991 8.03 0.0199906 8.81 0.00999061C13.76 -0.0100094 18.7 -9.39146e-06 23.63 0.00999061C27.44 0.0199906 30.21 2.46999 30.21 5.80999C30.21 10.18 30.21 14.55 30.21 18.91C30.21 19.15 30.21 19.39 30.21 19.68C31.54 19.82 32.67 20.27 33.52 21.18C34.28 22 34.57 22.96 34.57 24C34.57 27.02 34.56 30.04 34.57 33.07C34.57 33.77 35.05 34.31 35.76 34.51C36.41 34.69 37.22 34.45 37.59 33.9C37.76 33.65 37.87 33.32 37.87 33.03C37.89 28.18 37.89 23.32 37.86 18.47C37.86 18.26 37.62 17.96 37.4 17.86C35.22 16.9 34.1 15.37 34.1 13.22C34.1 12.32 34.13 11.41 34.08 10.51C34.07 10.25 33.88 9.92999 33.66 9.75999C33.11 9.28999 32.47 8.88999 31.81 8.42999ZM16.15 18.14C18.68 18.14 21.22 18.07 23.74 18.16C25.78 18.24 27.1 16.78 27.06 15.24C26.99 12.46 27.04 9.67999 27.04 6.89999C27.04 4.95999 25.85 3.90999 23.66 3.89999C21.78 3.88999 19.9 3.89999 18.02 3.89999C14.94 3.89999 11.85 3.88999 8.77 3.89999C6.75 3.90999 5.45 4.92999 5.43 6.59999C5.39 9.55999 5.39 12.51 5.43 15.47C5.45 17.07 6.74 18.13 8.54 18.14C11.09 18.14 13.62 18.14 16.15 18.14ZM16.24 23.07C14.99 25.07 13.77 26.91 12.7 28.81C12.4 29.35 12.38 30.1 12.48 30.72C12.72 32.14 13.76 33.02 15.32 33.38C16.88 33.73 18.2 33.3 19.21 32.24C20.2 31.19 20.47 29.96 19.76 28.73C18.69 26.86 17.48 25.04 16.24 23.07ZM36.31 11.55C35.86 13.71 36.5 15.44 37.89 15.84C37.89 14.86 37.9 13.9 37.88 12.93C37.88 12.78 37.8 12.57 37.67 12.48C37.24 12.15 36.78 11.86 36.31 11.55Z" fill="#787878"/>
</g>
<defs>
<clipPath id="clip0">
<rect width="40" height="40" fill="white"/>
</clipPath>
</defs>
</svg>
