<svg width="25" height="22" viewBox="0 0 25 22" fill="none" xmlns="http://www.w3.org/2000/svg">
<path d="M21.89 1.38875C21.615 0.5775 20.845 0 19.9375 0H4.8125C3.905 0 3.14875 0.5775 2.86 1.38875L0 9.625V20.625C0 21.3813 0.61875 22 1.375 22H2.75C3.50625 22 4.125 21.3813 4.125 20.625V19.25H20.625V20.625C20.625 21.3813 21.2437 22 22 22H23.375C24.1313 22 24.75 21.3813 24.75 20.625V9.625L21.89 1.38875ZM4.8125 15.125C3.67125 15.125 2.75 14.2037 2.75 13.0625C2.75 11.9213 3.67125 11 4.8125 11C5.95375 11 6.875 11.9213 6.875 13.0625C6.875 14.2037 5.95375 15.125 4.8125 15.125ZM19.9375 15.125C18.7962 15.125 17.875 14.2037 17.875 13.0625C17.875 11.9213 18.7962 11 19.9375 11C21.0788 11 22 11.9213 22 13.0625C22 14.2037 21.0788 15.125 19.9375 15.125ZM2.75 8.25L4.8125 2.0625H19.9375L22 8.25H2.75Z" fill="#383838"/>
</svg>
