<svg width="40" height="40" viewBox="0 0 40 40" fill="none" xmlns="http://www.w3.org/2000/svg">
<g clip-path="url(#clip0)">
<path d="M18.7798 3.38C16.6098 3.52 14.5598 4.14 12.5998 5.16C12.9698 5.86 13.3398 6.52 13.6898 7.19C14.1298 8.02 13.7898 8.95 12.9698 9.2C12.4498 9.36 11.8798 9.06 11.5698 8.48C11.2198 7.82 10.8698 7.15 10.5098 6.47C8.69979 7.8 7.18978 9.43 5.96978 11.38C6.58978 11.76 7.17978 12.13 7.76978 12.49C8.38978 12.87 8.63978 13.46 8.46978 14.14C8.30978 14.75 7.63978 15.18 7.06978 15C6.83978 14.93 6.61978 14.82 6.40978 14.69C5.86978 14.36 5.32978 14.01 4.75978 13.65C3.80978 15.77 3.24978 18 3.10978 20.35C3.85978 20.35 4.57978 20.34 5.28978 20.35C6.10978 20.36 6.61978 20.99 6.53978 21.87C6.49978 22.31 6.14978 22.82 5.74978 22.88C5.18978 22.96 4.61978 22.96 4.05978 22.99C3.80978 23 3.55978 22.99 3.30978 22.96C3.14978 22.95 3.08978 23 3.10978 23.17C3.19978 23.85 3.23978 24.54 3.38978 25.21C3.59978 26.2 3.86978 27.18 4.15978 28.15C4.31978 28.68 4.54978 29.18 4.75978 29.71C5.04978 29.52 5.29978 29.35 5.54978 29.19C6.00978 28.91 6.45978 28.61 6.92978 28.38C7.60978 28.04 8.47978 28.69 8.51978 29.5C8.54978 30.12 8.26978 30.53 7.80978 30.83C7.24978 31.2 6.65978 31.53 6.09978 31.89C6.04978 31.92 5.99978 32.08 6.02978 32.15C6.32978 33 6.05978 33.85 5.30978 34.27C4.73978 34.59 4.03978 34.56 3.61978 33.97C3.08978 33.23 2.64978 32.41 2.22978 31.58C1.55978 30.28 1.08978 28.88 0.729784 27.44C0.169784 25.22 -0.0802159 22.95 0.0297841 20.65C0.0897841 19.35 0.259784 18.07 0.529784 16.79C0.889784 15.12 1.40978 13.52 2.10978 12C3.62978 8.73 5.76978 6.02 8.54978 3.92C10.1098 2.74 11.7998 1.81 13.5998 1.15C14.9698 0.650001 16.3698 0.310001 17.8098 0.140001C19.5298 -0.0599992 21.2498 -0.0299992 22.9698 0.260001C24.2698 0.480001 25.5498 0.810001 26.7798 1.3C29.4598 2.35 31.8298 3.95 33.8798 6.1C35.5498 7.84 36.8898 9.84 37.9198 12.09C38.5698 13.52 39.0798 15 39.4198 16.55C39.8498 18.5 40.0798 20.48 39.9698 22.49C39.9098 23.58 39.7498 24.66 39.6098 25.74C39.4398 27.05 39.0698 28.3 38.6298 29.53C38.1598 30.84 37.5798 32.1 36.8798 33.28C36.6598 33.64 36.4698 34.02 36.0898 34.23C35.6198 34.5 35.1498 34.53 34.6798 34.27C34.1498 33.98 33.8598 33.51 33.8498 32.87C33.8498 32.64 33.9198 32.41 33.9698 32.19C34.0098 32.03 34.0298 31.95 33.8398 31.84C33.1898 31.47 32.5298 31.08 31.9198 30.63C31.4098 30.25 31.3498 29.58 31.5898 29.02C31.8298 28.45 32.4798 28.15 32.9998 28.39C33.5298 28.64 34.0298 28.97 34.5398 29.27C34.7098 29.37 34.8798 29.49 35.0398 29.62C35.1498 29.71 35.2398 29.72 35.2898 29.56C35.6098 28.64 35.9598 27.73 36.2298 26.8C36.4498 26.01 36.5898 25.19 36.7398 24.38C36.8198 23.93 36.8298 23.47 36.8698 23.02C36.1998 23.02 35.5698 23.02 34.9398 23.02C34.6098 23.02 34.2898 23.01 33.9998 22.81C33.5598 22.51 33.3498 22.03 33.4398 21.42C33.4898 21.06 33.8898 20.48 34.3398 20.45C34.8798 20.42 35.4198 20.4 35.9598 20.38C36.2498 20.37 36.5398 20.38 36.8598 20.38C36.7398 18.37 36.3198 16.44 35.5898 14.59C34.2798 11.25 32.2398 8.55 29.4698 6.49C29.2398 6.95 28.9998 7.43 28.7398 7.9C28.4998 8.33 28.3298 8.81 27.8898 9.08C27.5598 9.29 26.9398 9.3 26.5798 8.96C26.1898 8.6 25.9698 8.04 26.1798 7.59C26.5098 6.85 26.8898 6.12 27.2798 5.41C27.3898 5.2 27.3798 5.14 27.1798 5.04C26.0098 4.45 24.8098 3.99 23.5398 3.73C22.8398 3.59 22.1298 3.5 21.4198 3.39C21.3498 3.38 21.2798 3.39 21.2198 3.39C21.2198 4.16 21.2198 4.91 21.2198 5.66C21.2198 6.15 21.0698 6.57 20.6798 6.88C20.0298 7.4 18.9998 6.99 18.8398 6.12C18.7898 5.85 18.7798 5.56 18.7698 5.29C18.7698 4.67 18.7798 4.05 18.7798 3.38Z" fill="#787878"/>
<path d="M20.0399 33.36C21.9799 33.36 23.9099 33.36 25.8499 33.36C26.3099 33.36 26.7399 33.41 27.1099 33.75C27.5099 34.11 27.6699 34.58 27.6699 35.11C27.6799 36.18 27.6799 37.24 27.6599 38.31C27.6399 39.34 26.9799 40 26.0099 40C22.4099 40 18.8199 40 15.2199 40C14.8099 40 14.3999 39.99 13.9899 40C13.0199 40.03 12.3199 39.28 12.3199 38.24C12.3199 37.17 12.3099 36.11 12.3299 35.04C12.3499 34.03 12.9899 33.37 13.9299 33.36C15.9699 33.36 18.0099 33.37 20.0399 33.36Z" fill="#787878"/>
<path d="M19.9998 24.66C18.4298 24.71 17.0798 23.12 17.2498 21.37C17.4398 19.45 19.2098 18.26 20.7998 18.79C20.9598 18.85 21.1898 18.82 21.3498 18.75C24.7898 17.17 28.2298 15.57 31.6698 13.98C31.9798 13.83 32.2898 13.68 32.6098 13.55C32.6898 13.52 32.8298 13.53 32.8798 13.59C32.9998 13.71 32.8798 13.79 32.7898 13.86C31.5798 14.85 30.3598 15.83 29.1498 16.82C27.0598 18.52 24.9798 20.22 22.8898 21.92C22.8098 21.99 22.7398 22.11 22.7198 22.22C22.4398 23.67 21.3598 24.64 19.9998 24.66Z" fill="#787878"/>
</g>
<defs>
<clipPath id="clip0">
<rect width="40" height="40" fill="white"/>
</clipPath>
</defs>
</svg>
