<svg width="519" height="140" viewBox="0 0 519 140" fill="none" xmlns="http://www.w3.org/2000/svg">
<path d="M123.508 135.221L118.266 138.911C115.573 140.809 111.81 140.16 109.911 137.463L84.2545 101.087C82.3556 98.3955 83.0052 94.6351 85.7038 92.7374L90.9459 89.0469C93.6395 87.1492 97.4025 87.7984 99.3014 90.4951L124.958 126.871C126.857 129.563 126.207 133.323 123.508 135.221Z" fill="#5E9DBC"/>
<path d="M0 59.0133C0 26.4729 25.3063 0 56.5195 0C87.7327 0 113.209 26.4729 113.209 59.0133C113.209 91.5538 87.7327 118.027 56.5195 118.027C25.3063 118.022 0 91.5538 0 59.0133ZM19.7393 59.0133C19.7393 80.7619 36.2754 98.3006 56.5195 98.3006C76.9335 98.3006 93.4696 80.7669 93.4696 59.0133C93.4696 37.2647 76.9335 19.726 56.5195 19.726C36.2754 19.726 19.7393 37.2598 19.7393 59.0133Z" fill="#5E9DBC"/>
<path d="M195.549 49.2302V108.244C195.549 112.289 193.021 115.999 189.138 117.347C187.959 117.852 186.774 118.022 185.595 118.022C182.726 118.022 180.028 116.673 178.169 114.481L146.646 76.612C146.581 76.5321 146.451 76.577 146.451 76.6819V108.239C146.451 112.219 144.062 115.65 140.574 117.173C134.023 120.034 126.712 114.955 126.712 107.809V49.2302C126.712 45.0153 129.24 41.3048 133.123 39.9565C134.303 39.4521 135.487 39.2823 136.666 39.2823C139.535 39.2823 142.233 40.6306 144.087 42.823L175.78 80.692C175.845 80.7719 175.975 80.727 175.975 80.6221V49.2302C175.975 43.667 180.363 39.2823 185.76 39.2823C191.157 39.2823 195.549 43.667 195.549 49.2302Z" fill="#5E9DBC"/>
<path d="M242.804 117.857C242.799 117.857 242.794 117.857 242.789 117.857C232.5 117.348 223.564 112.963 217.488 105.382C211.921 98.3006 209.052 89.0269 209.052 78.5746C209.052 56.826 224.574 39.2873 243.469 39.2873C252.919 39.2873 261.689 43.1676 268.1 50.4138C274.542 57.3603 277.92 66.8588 277.885 77.0315C277.87 82.4599 273.417 86.8346 267.99 86.8346H229.956C229.881 86.8346 229.826 86.9095 229.846 86.9794C231.555 92.3329 235.278 97.966 243.803 98.2956H244.818C247.347 98.2956 252.069 98.2956 256.287 95.2643C256.292 95.2643 256.292 95.2593 256.297 95.2593C257.981 94.2505 259.84 93.7462 261.694 93.7462C264.897 93.7462 268.105 95.2643 269.959 98.1308C271.144 99.649 271.648 101.502 271.648 103.359C271.648 106.561 269.959 109.937 267.096 111.789C259 117.183 250.56 118.027 245.837 118.027C244.488 118.022 243.479 118.022 242.804 117.857ZM255.942 67.1035C256.027 67.1035 256.082 67.0136 256.042 66.9387C253.493 61.9747 248.981 58.8435 243.469 58.8435C238.801 58.8435 234.458 62.1395 231.755 66.9387C231.715 67.0136 231.77 67.1085 231.855 67.1085H255.942V67.1035Z" fill="#5E9DBC"/>
<path d="M382.664 97.6215C385.192 102.341 383.338 108.244 378.616 110.94C370.01 115.495 360.396 118.022 350.441 118.022C317.878 118.022 291.388 91.5488 291.388 59.0084C291.388 26.4729 317.878 0 350.441 0C360.396 0 370.01 2.52693 378.616 7.0814C383.338 9.77813 385.197 15.681 382.664 20.4002C379.965 25.2893 374.058 26.9772 369.166 24.4453C363.599 21.2392 357.017 19.726 350.441 19.726C328.843 19.726 311.127 37.2598 311.127 59.0133C311.127 80.7619 328.843 98.3006 350.441 98.3006C357.017 98.3006 363.599 96.7825 369.166 93.5814C374.063 91.0444 379.965 92.7324 382.664 97.6215Z" fill="#5E9DBC"/>
<path d="M466.183 108.244C466.183 113.472 461.796 118.022 456.399 118.022C452.561 118.022 449.213 115.874 447.673 112.728C447.648 112.673 447.583 112.653 447.528 112.678C444.01 114.506 440.167 115.839 435.99 116.673H435.985C434.63 116.843 430.583 117.852 425.36 117.852C411.018 117.852 401.064 110.601 398.025 97.7863C397.52 95.9335 397.351 94.0758 397.351 92.223C397.351 87.5037 398.87 82.9493 401.738 79.2388C405.621 74.1799 413.717 68.1123 431.937 67.4381C434.466 67.4381 436.829 67.2683 439.363 67.2683C441.177 67.2683 443.316 67.2683 445.62 67.5829C445.694 67.5929 445.759 67.528 445.744 67.4531C445.225 64.8013 444.055 62.0247 442.401 61.0309C439.873 59.6825 436.834 59.0083 433.966 59.0083C427.554 59.0083 421.143 61.8749 417.6 64.7414C415.746 66.2595 413.552 66.9337 411.358 66.9337C408.49 66.9337 405.791 65.7551 403.767 63.393C402.248 61.5403 401.573 59.3479 401.573 57.1556C401.573 54.2891 402.753 51.4226 405.116 49.5698C411.868 44.0066 420.133 40.4659 429.243 39.6219C430.763 39.4521 432.112 39.4521 433.631 39.4521C440.382 39.4521 446.794 40.9702 452.021 43.8368C465.519 51.4226 466.023 69.1261 466.023 70.9838V97.4566L466.183 108.244ZM445.04 87.4688C445.07 87.3989 445.03 87.324 444.955 87.314C443.771 87.1542 441.951 86.9944 439.358 86.9944C437.164 86.9944 434.805 86.9944 430.753 87.1641C423.007 87.4987 418.619 89.5163 417.43 91.0344C417.425 91.0394 417.42 91.0444 417.42 91.0544C417.25 91.389 416.92 91.7236 416.92 92.3928C416.92 92.5626 417.09 92.8972 417.09 93.2368C417.595 95.2593 418.269 98.1258 425.355 98.1258C428.389 98.1258 430.922 97.6215 431.767 97.4517C432.102 97.2819 432.272 97.2819 432.442 97.2819C438.678 96.1033 442.561 92.3978 444.25 89.3615C444.25 89.3565 444.255 89.3515 444.255 89.3465L445.04 87.4688Z" fill="#5E9DBC"/>
<path d="M519 49.2302C519 54.6237 514.612 59.0083 509.215 59.0083C506.007 59.0083 501.789 59.5127 500.105 62.0446C499.62 62.8487 499.446 63.8075 499.431 63.8924C499.431 63.8974 499.431 63.9024 499.431 63.9074V108.239C499.431 112.219 497.042 115.65 493.554 117.178C487.002 120.039 479.691 114.96 479.691 107.814V49.2302C479.691 43.667 484.079 39.2823 489.476 39.2823C491.98 39.2823 494.158 40.1113 495.837 41.5995C495.867 41.6244 495.907 41.6344 495.947 41.6194C499.645 40.1163 504.013 39.2823 509.215 39.2823C514.612 39.2873 519 43.667 519 49.2302Z" fill="#5E9DBC"/>
<path d="M37.055 55.6025L39.4187 43.5721C39.4187 43.5721 39.2038 38.8478 46.0801 38.8478C52.9564 38.8478 68.4331 38.8478 68.4331 38.8478C68.4331 38.8478 72.5159 39.2773 73.5903 44.431C74.6647 49.5848 75.7391 55.6025 75.7391 55.6025L81.4211 56.0419L78.7475 41.2149C78.7475 41.2149 77.4582 33.2696 69.7224 33.2696C61.9866 33.2696 43.0718 33.2696 43.0718 33.2696C43.0718 33.2696 35.5508 33.9138 34.4764 39.9265C33.402 45.9392 31.0383 56.8959 31.0383 56.8959L37.055 55.6025Z" fill="#808080"/>
<path d="M77.4532 84.5973H77.0484C74.9146 84.5973 73.1655 82.8544 73.1655 80.717V77.4909C73.1655 75.3585 74.9096 73.6106 77.0484 73.6106H77.4532C79.5871 73.6106 81.3361 75.3535 81.3361 77.4909V80.717C81.3311 82.8544 79.5871 84.5973 77.4532 84.5973Z" fill="#808080"/>
<path d="M35.7557 84.6522H35.3509C33.2171 84.6522 31.468 82.9093 31.468 80.7719V77.6357C31.468 75.5033 33.2121 73.7554 35.3509 73.7554H35.7557C37.8896 73.7554 39.6386 75.4983 39.6386 77.6357V80.7719C39.6336 82.9043 37.8896 84.6522 35.7557 84.6522Z" fill="#808080"/>
<path d="M78.8274 55.8073H34.0266C29.559 55.8073 25.906 59.4578 25.906 63.9224V71.3234C25.906 75.788 29.559 79.4386 34.0266 79.4386H78.8324C83.3 79.4386 86.9531 75.788 86.9531 71.3234V63.9224C86.9481 59.4578 83.295 55.8073 78.8274 55.8073ZM34.3614 68.5718C28.8844 68.5718 28.8944 60.0821 34.3614 60.0821C39.8385 60.0821 39.8285 68.5718 34.3614 68.5718ZM64.765 74.2399C62.0765 75.6382 58.5534 76.1426 55.58 76.1426C52.0369 76.1426 42.587 75.0039 42.587 69.6504C42.587 67.513 44.7408 65.92 46.3949 65.061C49.0835 63.6627 52.6066 63.1583 55.58 63.1583C59.1231 63.1583 68.573 64.2969 68.573 69.6504C68.568 71.7829 66.4191 73.3809 64.765 74.2399ZM77.743 68.9113C72.266 68.9113 72.276 60.4216 77.743 60.4216C83.2151 60.4216 83.2101 68.9113 77.743 68.9113Z" fill="#808080"/>
<path d="M70.6019 62.5091H41.1178V70H70.6019V62.5091Z" fill="#808080"/>
</svg>
