<svg width="37" height="43" viewBox="0 0 37 43" fill="none" xmlns="http://www.w3.org/2000/svg">
<g clip-path="url(#clip0)">
<path d="M18.1527 -0.000296507C21.6159 -0.0114119 25.0467 0.272031 28.4451 0.961187C30.4788 1.37246 32.4531 1.97269 34.3681 2.77856C34.7458 2.93417 35.1072 3.13425 35.4632 3.33989C36.4504 3.929 36.9305 4.8627 36.9736 6.00759C37.0168 7.04688 37.0114 8.09173 36.979 9.13102C36.8604 13.1048 36.3263 17.0174 35.269 20.8411C33.9096 25.7597 31.7195 30.2392 28.6016 34.2296C26.9293 36.3694 25.0359 38.2979 23.013 40.0819C21.9503 41.0156 20.8552 41.8993 19.6523 42.6385C18.8971 43.0997 18.185 43.122 17.4244 42.6662C16.4534 42.0827 15.5526 41.4046 14.6949 40.671C12.3106 38.6425 10.1043 36.4249 8.18386 33.9184C5.51904 30.4337 3.5501 26.5767 2.21229 22.3639C1.25749 19.3961 0.658714 16.356 0.324262 13.2548C0.08691 11.0318 -0.0371606 8.79756 0.0113887 6.5578C0.0221775 6.00203 0.113882 5.42959 0.270319 4.9016C0.529249 4.01237 1.19276 3.45104 1.98573 3.10091C2.99448 2.65073 4.0248 2.25058 5.06592 1.89488C7.32076 1.12792 9.64574 0.699975 11.9977 0.405416C14.0422 0.149762 16.0974 0.0219343 18.1527 -0.000296507ZM17.678 1.92267C17.678 1.90044 17.678 1.88377 17.6726 1.86154C16.0704 1.98381 14.4629 2.07829 12.8662 2.2339C10.7408 2.43954 8.64239 2.79523 6.59252 3.41769C5.36261 3.79006 4.15427 4.25135 2.94593 4.71264C2.17993 5.00164 1.8239 5.61299 1.85087 6.46332C1.90481 8.00836 1.9156 9.55896 2.00191 11.0984C2.13138 13.466 2.47662 15.8114 2.98908 18.129C4.19742 23.6089 6.4199 28.583 9.83454 32.9847C11.5877 35.2411 13.5782 37.253 15.7414 39.0815C16.5344 39.754 17.4028 40.3264 18.2336 40.9489C18.4224 41.0934 18.595 41.0823 18.7892 40.9489C19.0589 40.7599 19.3502 40.6043 19.6145 40.4098C21.7345 38.8481 23.6441 37.0418 25.4189 35.0855C29.2974 30.8116 31.973 25.8375 33.5158 20.2131C34.2279 17.6121 34.6864 14.9611 34.9292 12.2656C35.1072 10.3037 35.1827 8.34183 35.1611 6.36884C35.1557 5.64634 34.8806 5.10168 34.2279 4.79045C33.969 4.66818 33.7154 4.53479 33.4457 4.4292C30.495 3.26764 27.431 2.58404 24.2969 2.2339C22.1013 1.98936 19.895 1.87821 17.678 1.92267Z" fill="#787878"/>
<path d="M18.1679 5.94115C21.4477 5.93003 24.7005 6.18013 27.921 6.76925C29.8468 7.12494 31.7186 7.64181 33.5311 8.33097C33.8871 8.46435 34.2324 8.63664 34.5668 8.81449C35.5055 9.32579 35.9532 10.1261 36.0017 11.1098C36.0395 12.0046 36.0341 12.905 36.0071 13.8053C35.8938 17.2289 35.3868 20.6024 34.3888 23.8981C33.0996 28.1386 31.0227 32.0012 28.072 35.4359C26.4861 37.2811 24.6951 38.9428 22.7747 40.4768C21.7714 41.2826 20.7303 42.044 19.5867 42.6832C18.8692 43.0833 18.2003 43.1 17.4721 42.7054C16.555 42.1996 15.7027 41.6161 14.8828 40.9825C12.6225 39.2318 10.5295 37.3255 8.71699 35.1636C6.19243 32.1624 4.32597 28.8334 3.0583 25.2042C2.16823 22.6476 1.59642 20.0299 1.27815 17.3567C1.05159 15.4393 0.932914 13.5163 0.981463 11.5878C0.992252 11.1154 1.07856 10.6207 1.22421 10.165C1.47235 9.39805 2.0981 8.91452 2.84792 8.61441C3.80272 8.22537 4.7791 7.88079 5.77167 7.57512C7.90784 6.91375 10.1141 6.54694 12.342 6.29129C14.2786 6.06898 16.2206 5.95782 18.1679 5.94115ZM17.7202 7.59735C17.7202 7.58067 17.7202 7.564 17.7148 7.54733C16.1936 7.65292 14.6778 7.73629 13.162 7.86412C11.1499 8.04196 9.15933 8.34764 7.21736 8.88674C6.04678 9.20908 4.90317 9.60924 3.75957 10.0038C3.03672 10.2539 2.69687 10.7819 2.72385 11.5155C2.7724 12.8494 2.78318 14.1832 2.8641 15.5115C2.98817 17.5568 3.31183 19.5742 3.79733 21.5694C4.94093 26.2879 7.05013 30.584 10.2868 34.3744C11.9482 36.3196 13.8309 38.0536 15.8807 39.6264C16.6305 40.2044 17.4559 40.6991 18.2381 41.2382C18.4215 41.3604 18.5833 41.3549 18.7613 41.2382C19.0149 41.077 19.2954 40.9436 19.5435 40.7713C21.5502 39.4263 23.3627 37.8702 25.0458 36.1806C28.7247 32.4959 31.2547 28.2109 32.722 23.359C33.3963 21.1137 33.8332 18.8295 34.0598 16.5119C34.227 14.8224 34.2971 13.1273 34.2809 11.4322C34.2755 10.8097 34.0166 10.3429 33.4016 10.0705C33.1589 9.96493 32.9162 9.84822 32.6626 9.7593C29.8683 8.75891 26.9662 8.16979 23.9939 7.86968C21.9116 7.65292 19.8186 7.55844 17.7202 7.59735Z" fill="#787878"/>
<path d="M1.24121 4.82411L8.2539 2.04526L19.0426 0.933716L33.6074 3.1568L36.3046 5.37988L35.927 10.543L34.1469 9.82605L28.7525 7.60297L15.806 7.0472L10.9511 7.60297L2.32009 9.82605H1.24121V4.82411Z" fill="#787878"/>
</g>
<defs>
<clipPath id="clip0">
<rect width="37" height="43" fill="white"/>
</clipPath>
</defs>
</svg>
