<svg width="47" height="37" viewBox="0 0 47 37" fill="none" xmlns="http://www.w3.org/2000/svg">
<g clip-path="url(#clip0)">
<path d="M37.5765 30.2374C37.1065 30.2374 36.6953 30.2374 36.237 30.2374C36.237 30.4316 36.237 30.5889 36.237 30.7554C36.237 32.1799 36.237 33.6044 36.237 35.0289C36.237 36.3516 35.626 36.9806 34.3688 36.9806C29.187 36.9806 23.9935 36.9714 18.8118 36.9899C18.142 36.9899 17.625 36.7494 17.1903 36.2221C15.5688 34.3166 13.912 32.4296 12.2905 30.5241C12.0908 30.2836 11.8793 30.1819 11.562 30.1911C10.0228 30.2096 8.4835 30.2004 6.956 30.2004C5.734 30.2004 5.13475 29.5714 5.13475 28.3041C5.13475 26.1304 5.13475 23.9474 5.13475 21.7736C5.13475 21.5886 5.13475 21.4129 5.13475 21.2001C4.4885 21.2001 3.88925 21.2001 3.2195 21.2001C3.2195 21.3666 3.2195 21.5424 3.2195 21.7181C3.2195 24.0214 3.2195 26.3154 3.2195 28.6186C3.2195 29.5066 2.59675 30.2004 1.79775 30.2651C0.95175 30.3391 0.235 29.8119 0.05875 28.9701C0 28.8129 0 28.6186 0 28.4336C0 22.4951 0 16.5659 0 10.6274C0 9.48038 0.64625 8.73113 1.60975 8.74038C2.57325 8.74963 3.196 9.48963 3.196 10.6459C3.196 12.8566 3.196 15.0581 3.196 17.2689C3.196 17.4354 3.196 17.6019 3.196 17.8054C3.8305 17.8054 4.4415 17.8054 5.11125 17.8054C5.11125 17.6389 5.11125 17.4816 5.11125 17.3151C5.11125 15.4744 5.11125 13.6336 5.11125 11.7929C5.11125 10.5626 5.734 9.92438 6.92075 9.92438C7.8725 9.92438 8.836 9.92438 9.8465 9.92438C9.8465 9.45263 9.85825 9.02713 9.8465 8.60163C9.74075 5.52138 10.1285 5.19763 13.066 5.27163C15.0635 5.32713 17.061 5.28088 19.0468 5.28088C19.223 5.28088 19.3875 5.28088 19.5873 5.28088C19.5873 4.59638 19.5873 3.97663 19.5873 3.30138C19.3993 3.30138 19.2465 3.30138 19.082 3.30138C18.1772 3.30138 17.2843 3.31063 16.3795 3.29213C15.4865 3.27363 14.8168 2.53363 14.8168 1.62713C14.8168 0.748376 15.4983 -0.0101239 16.356 -0.0193739C19.6108 -0.0378739 22.8538 -0.0378739 26.1085 -0.0193739C26.9663 -0.0101239 27.636 0.757626 27.6243 1.64563C27.6125 2.53363 26.9545 3.26438 26.085 3.28288C25.1803 3.31063 24.2873 3.29213 23.3825 3.29213C23.218 3.29213 23.0653 3.29213 22.8303 3.29213C22.8303 3.90263 22.8185 4.48538 22.8538 5.05888C22.8538 5.14213 23.1123 5.26238 23.2415 5.26238C24.4283 5.28088 25.6033 5.27163 26.79 5.27163C27.6007 5.27163 28.4115 5.26238 29.234 5.27163C30.3855 5.28088 31.02 5.92838 31.02 7.12163C31.02 8.40738 31.02 9.69313 31.02 10.9881C31.02 11.1546 31.02 11.3211 31.02 11.5524C31.5135 11.5524 31.96 11.5524 32.4183 11.5524C33.1233 11.5524 33.84 11.5431 34.545 11.5524C35.5555 11.5616 36.2018 12.2184 36.2253 13.2729C36.237 13.9204 36.2253 14.5586 36.2253 15.2061C36.2253 15.3079 36.237 15.4189 36.2488 15.5576C36.4368 15.5576 36.6248 15.5576 36.848 15.5576C36.848 15.3726 36.848 15.2061 36.848 15.0489C36.848 14.0499 36.8363 13.0509 36.8598 12.0611C36.8833 11.1731 37.4943 10.4701 38.3168 10.4609C39.762 10.4331 41.2073 10.4424 42.6643 10.4609C43.2635 10.4701 43.71 10.8031 43.9685 11.3489C44.9438 13.4671 45.9073 15.5854 46.8473 17.7129C46.953 17.9349 46.9765 18.2216 46.9765 18.4714C46.9883 21.7829 46.9883 25.0944 46.9648 28.4059C46.9648 28.7666 46.8473 29.1736 46.671 29.4881C45.731 31.1901 44.744 32.8644 43.7923 34.5571C43.4398 35.1676 42.9345 35.4729 42.2648 35.4729C41.2543 35.4729 40.2555 35.4821 39.245 35.4729C38.211 35.4636 37.5648 34.7884 37.553 33.7154C37.5648 32.5961 37.5765 31.4399 37.5765 30.2374ZM8.3425 26.8796C9.69375 26.8796 11.0098 26.8981 12.3258 26.8704C13.0778 26.8519 13.6535 27.1109 14.147 27.7029C15.745 29.5899 17.3783 31.4491 18.988 33.3361C19.1878 33.5766 19.3875 33.6876 19.7048 33.6784C23.97 33.6691 28.247 33.6691 32.5123 33.6691C32.665 33.6691 32.8178 33.6691 33.0058 33.6691C33.0058 33.4286 33.0058 33.2621 33.0058 33.0956C33.0058 31.6249 32.994 30.1541 33.0058 28.6834C33.0175 27.5826 33.6637 26.8981 34.7213 26.8889C36.1665 26.8796 37.6235 26.8796 39.0688 26.8889C40.1145 26.8981 40.7725 27.5919 40.7725 28.6926C40.7725 29.6916 40.7725 30.6906 40.7725 31.6804C40.7725 31.8376 40.7843 32.0041 40.796 32.1244C41.266 32.2816 41.501 32.1244 41.7125 31.7359C42.3235 30.6166 42.9815 29.5251 43.5925 28.4059C43.6982 28.2024 43.7805 27.9526 43.7805 27.7214C43.7923 24.8539 43.7923 21.9864 43.7805 19.1189C43.7805 18.9431 43.7688 18.7396 43.6865 18.5824C43.005 17.0654 42.3235 15.5576 41.6303 14.0499C41.5833 13.9481 41.454 13.8186 41.36 13.8094C40.937 13.7816 40.514 13.8001 40.0675 13.8001C40.0675 14.9564 40.0675 16.0386 40.0675 17.1209C40.0675 18.2679 39.4095 18.9431 38.2933 18.9524C37.1535 18.9524 36.0138 18.9524 34.874 18.9524C33.6168 18.9524 32.994 18.3141 32.994 17.0099C32.994 16.3254 32.994 15.6409 32.994 14.9841C32.9118 14.9471 32.8883 14.9286 32.853 14.9286C31.7603 14.9194 30.6675 14.9194 29.5748 14.9194C28.4233 14.9194 27.7888 14.2719 27.7888 13.0694C27.7888 11.7651 27.7888 10.4609 27.7888 9.15663C27.7888 8.99938 27.777 8.83288 27.7653 8.67563C22.842 8.67563 17.9775 8.67563 13.0543 8.67563C13.0543 8.86988 13.0543 9.03638 13.0543 9.20288C13.0543 10.0169 13.066 10.8309 13.0425 11.6449C13.0073 12.6254 12.361 13.2636 11.421 13.2729C10.5515 13.2821 9.682 13.2729 8.80075 13.2729C8.648 13.2729 8.49525 13.2729 8.33075 13.2729C8.3425 17.8239 8.3425 22.3194 8.3425 26.8796Z" fill="#787878"/>
</g>
<defs>
<clipPath id="clip0">
<rect width="47" height="37" fill="white"/>
</clipPath>
</defs>
</svg>
