<svg width="18" height="18" viewBox="0 0 18 18" fill="none" xmlns="http://www.w3.org/2000/svg">
<path d="M16.9594 17.3856L16.2396 17.8601C15.8697 18.1041 15.353 18.0207 15.0923 17.6739L11.5694 12.997C11.3086 12.6509 11.3978 12.1674 11.7684 11.9234L12.4882 11.4489C12.8581 11.205 13.3747 11.2884 13.6355 11.6352L17.1584 16.3121C17.4191 16.6582 17.3299 17.1416 16.9594 17.3856Z" fill="#787878"/>
<path d="M0 7.58748C0 3.40368 3.47485 0 7.76077 0C12.0467 0 15.5449 3.40368 15.5449 7.58748C15.5449 11.7713 12.0467 15.175 7.76077 15.175C3.47485 15.1743 0 11.7713 0 7.58748ZM2.71044 7.58748C2.71044 10.3838 4.98103 12.6387 7.76077 12.6387C10.5638 12.6387 12.8344 10.3844 12.8344 7.58748C12.8344 4.79122 10.5638 2.53622 7.76077 2.53622C4.98103 2.53622 2.71044 4.79057 2.71044 7.58748Z" fill="#787878"/>
</svg>
