<svg width="40" height="40" viewBox="0 0 40 40" fill="none" xmlns="http://www.w3.org/2000/svg">
<g clip-path="url(#clip0)">
<path d="M39.3901 2.42C38.7601 1.25 37.7801 0.52 36.5501 0.14C36.3001 0.13 36.0601 0.09 35.8201 0.02C35.8101 0.02 35.8101 0.02 35.8001 0.02C35.7301 0.02 35.6401 0.02 35.5301 0H34.8201C34.8101 0 34.8001 0 34.8001 0C34.7101 0.01 34.6301 0.03 34.5401 0.04C34.5301 0.04 34.5201 0.04 34.5001 0.05C34.4001 0.07 34.3001 0.09 34.2101 0.11C33.7101 0.34 33.0801 0.58 32.5601 0.97C29.8701 2.96 30.1201 7.06 33.0101 8.74C33.2801 8.89 33.3601 9.06 33.3601 9.35C33.3501 11.28 33.3601 13.22 33.3501 15.15C33.3501 16.96 32.2601 18.06 30.4701 18.06C28.5201 18.06 26.5701 18.06 24.6201 18.07C24.3601 18.07 24.2101 18 24.0701 17.75C23.6601 17 23.0701 16.41 22.3301 16.01C22.1201 15.89 22.0401 15.76 22.0501 15.52C22.0601 13.43 22.0501 11.34 22.0601 9.25C22.0601 9.1 22.1601 8.89 22.2801 8.82C24.0901 7.71 24.9701 5.89 24.6401 3.89C24.3201 1.99 22.8901 0.55 20.8701 0.09C20.8601 0.09 20.8401 0.07 20.8201 0.06H19.1801C17.6801 0.41 16.5401 1.26 15.8501 2.65C14.7601 4.84 15.5901 7.55 17.7101 8.76C17.9401 8.89 18.0301 9.03 18.0301 9.3C18.0201 11.38 18.0201 13.45 18.0201 15.53C18.0201 15.77 17.9401 15.9 17.7301 16.02C16.9701 16.44 16.3801 17.03 15.9701 17.8C15.8601 18 15.7501 18.08 15.5201 18.08C12.7001 18.07 9.88013 18.08 7.06013 18.08C6.96013 18.08 6.86013 18.06 6.74013 18.05C6.73013 17.92 6.72013 17.8 6.72013 17.69C6.72013 14.9 6.72013 12.1 6.72013 9.31C6.72013 9.08 6.77013 8.94 6.99013 8.81C8.73013 7.81 9.62013 5.98 9.35013 4.03C9.08013 2.15 7.68013 0.63 5.78013 0.15C5.70013 0.12 5.61013 0.1 5.52013 0.08C5.52013 0.08 5.52013 0.08 5.52013 0.07C5.44013 0.07 5.35013 0.06 5.26013 0.05C5.23013 0.05 5.19013 0.04 5.16013 0.04C5.02013 0.02 4.88013 0.01 4.74013 0C4.87013 0.01 4.47013 0.01 4.43013 0.01C4.40013 0.01 4.38013 0.01 4.37013 0.01C4.29013 0.01 4.22013 0.02 4.15013 0.03C4.10013 0.03 4.05013 0.04 3.99013 0.05H4.01013C1.95013 0.53 0.680128 1.74 0.150128 3.76C0.110128 3.99 0.0301277 4.21 0.0101277 4.45C-0.0198723 4.79 0.0301277 5.12 0.0701277 5.45C0.0801277 5.47 0.0901277 5.49 0.0901277 5.51C0.420128 6.99 1.22013 8.12 2.55013 8.87C2.65013 8.93 2.72013 9.12 2.72013 9.25C2.73013 10.35 2.73013 11.44 2.73013 12.54C2.73013 18.64 2.73013 24.73 2.73013 30.83C2.73013 31.12 2.66013 31.29 2.39013 31.44C1.14013 32.16 0.410128 33.28 0.0901277 34.69V34.67C0.0901277 34.68 0.0801277 34.69 0.0801277 34.7C0.0701277 34.77 0.0701277 34.84 0.0601277 34.91C0.0401277 35.19 0.0601277 35.48 0.0501277 35.76C0.0501277 35.91 0.0501277 36.06 0.0601277 36.21C0.0701277 36.24 0.0801277 36.28 0.0801277 36.31C0.280128 37.03 0.560128 37.71 1.01013 38.31C1.63013 39.14 2.47013 39.66 3.42013 40.01H6.07013C6.96013 39.65 7.77013 39.18 8.37013 38.4C10.1401 36.13 9.53013 32.86 7.04013 31.43C6.79013 31.29 6.71013 31.13 6.71013 30.85C6.72013 28.09 6.72013 25.34 6.72013 22.58V22.12H7.20013C9.94013 22.12 12.6801 22.12 15.4301 22.11C15.7001 22.11 15.8701 22.17 16.0101 22.43C16.4101 23.18 17.0101 23.76 17.7601 24.17C17.9601 24.28 18.0401 24.39 18.0401 24.62C18.0301 26.74 18.0401 28.85 18.0301 30.97C18.0301 31.1 17.9201 31.29 17.8101 31.36C16.1501 32.35 15.2901 33.82 15.4101 35.75C15.5301 37.76 16.6201 39.14 18.4901 39.89C18.5701 39.92 18.6501 39.97 18.7301 40H21.3801C22.4301 39.61 23.3201 39.01 23.9401 38.06C25.4201 35.82 24.7101 32.78 22.3901 31.43C22.1501 31.29 22.0501 31.15 22.0501 30.86C22.0701 28.8 22.0601 26.73 22.0601 24.67C22.0601 24.41 22.1401 24.28 22.3701 24.15C23.1201 23.74 23.7001 23.15 24.1001 22.4C24.2301 22.17 24.3701 22.11 24.6201 22.11C26.6201 22.12 28.6201 22.12 30.6201 22.11C33.9501 22.09 36.6201 19.87 37.2501 16.61C37.3401 16.17 37.3601 15.7 37.3601 15.25C37.3701 13.27 37.3701 11.28 37.3701 9.3C37.3701 9.1 37.3801 8.95 37.6001 8.82C38.9001 8.09 39.6901 6.98 39.9601 5.5C39.9401 5.45 39.9801 5.4 40.0001 5.36V4.1C39.8001 3.54 39.6701 2.94 39.3901 2.42Z" fill="#787878"/>
</g>
<defs>
<clipPath id="clip0">
<rect width="40" height="40" fill="white"/>
</clipPath>
</defs>
</svg>
