<svg width="81" height="67" viewBox="0 0 81 67" fill="none" xmlns="http://www.w3.org/2000/svg">
<path d="M14.2101 43.0398C16.5601 43.0398 18.5701 43.0398 20.9501 43.0398C20.9501 48.7398 20.9501 54.4298 20.9501 60.2398C38.6401 60.2398 55.9501 60.2398 73.5001 60.2398C73.5001 47.1698 73.5001 34.1298 73.5001 20.7798C63.4401 20.7798 53.3101 20.7798 43.0201 20.7798C43.0201 18.4798 43.0201 16.4998 43.0201 14.2898C43.8101 14.2198 44.5701 14.0798 45.3201 14.0798C54.4401 14.0698 63.5501 14.0498 72.6701 14.0798C77.9801 14.0998 80.5001 16.6098 80.5101 21.8698C80.5301 34.3498 80.5301 46.8298 80.5101 59.3098C80.5001 64.4098 77.9401 66.9698 72.8301 66.9798C55.8401 66.9998 38.8501 66.9998 21.8501 66.9798C16.7801 66.9698 14.2301 64.3898 14.2101 59.2698C14.1901 53.9698 14.2101 48.6698 14.2101 43.0398Z" fill="#5E9DBC"/>
<path d="M14.55 0H20.59C21.42 0 22.09 0.67 22.09 1.5V11.52C22.09 12.35 22.76 13.02 23.59 13.02H33.68C34.51 13.02 35.18 13.69 35.18 14.52V20.46C35.18 21.29 34.51 21.96 33.68 21.96H23.67C22.84 21.96 22.17 22.63 22.17 23.46V33.63C22.17 34.46 21.5 35.13 20.67 35.13H14.74C13.91 35.13 13.24 34.46 13.24 33.63V23.6C13.24 22.77 12.57 22.1 11.74 22.1H1.5C0.67 22.1 0 21.43 0 20.6V14.73C0 13.9 0.67 13.23 1.5 13.23H11.55C12.38 13.23 13.05 12.56 13.05 11.73V1.5C13.05 0.67 13.72 0 14.55 0Z" fill="#5E9DBC"/>
<path d="M34.0003 33.79C37.9703 36.77 41.6903 39.46 45.2803 42.3C46.7003 43.42 47.9403 43.91 49.5003 42.73C52.4903 40.45 55.3103 40.62 58.2603 43C59.9603 44.38 61.9103 45.56 63.9203 46.4C67.3203 47.81 67.8503 50.22 66.9603 53.57C53.9103 53.57 40.8103 53.57 27.4503 53.57C27.4503 49.38 27.4103 45.34 27.5003 41.3C27.5103 40.7 28.0403 40.04 28.4903 39.55C30.2303 37.66 32.0303 35.84 34.0003 33.79Z" fill="#5E9DBC"/>
<path d="M67.2497 32.35C67.1997 35.13 64.8597 37.31 62.0297 37.21C59.3397 37.11 57.1697 34.85 57.2297 32.19C57.2897 29.44 59.7097 27.18 62.4597 27.3C65.1397 27.41 67.2997 29.69 67.2497 32.35Z" fill="#5E9DBC"/>
</svg>
