<svg id="Camada_1" data-name="Camada 1" xmlns="http://www.w3.org/2000/svg" viewBox="0 0 31 19"><defs><style>.cls-1{fill:#787878;}</style></defs><title>views</title><path class="cls-1" d="M0,9.57A24.13,24.13,0,0,1,7.29,2.45,15.65,15.65,0,0,1,17.15.08a15.86,15.86,0,0,1,6.41,2.24A23.08,23.08,0,0,1,31,9.5a23.57,23.57,0,0,1-7.22,7.05A15.68,15.68,0,0,1,16.08,19a16,16,0,0,1-9.79-3.12A32.36,32.36,0,0,1,0,9.57Zm15.42,7.64c.47,0,.94,0,1.41,0A9.81,9.81,0,0,0,18,17a16.5,16.5,0,0,0,10.41-7,.68.68,0,0,0,0-1,45.1,45.1,0,0,0-3.7-3.86,13.61,13.61,0,0,0-11.1-3.25C8.91,2.6,5.39,5.26,2.64,9a.7.7,0,0,0,0,1c.51.62,1,1.3,1.52,1.88C7.24,15.11,10.87,17.15,15.42,17.21Z"/><path class="cls-1" d="M21.25,9.47a5.61,5.61,0,0,1-5.64,5.67,5.65,5.65,0,1,1-.06-11.3A5.62,5.62,0,0,1,21.25,9.47Zm-9.57,0a3.85,3.85,0,0,0,3.86,3.88,3.9,3.9,0,0,0,3.91-3.78,3.89,3.89,0,0,0-7.77-.1Z"/></svg>