<svg width="40" height="40" viewBox="0 0 40 40" fill="none" xmlns="http://www.w3.org/2000/svg">
<g clip-path="url(#clip0)">
<path d="M7.99984 3.99001C7.99984 3.27001 7.98984 2.63001 7.99984 1.99001C8.00984 0.830006 8.79984 0.0400056 9.92984 0.0200056C11.1198 5.59166e-06 11.9298 0.730006 11.9798 1.91001C12.0098 2.58001 11.9898 3.25001 11.9898 3.96001C17.3298 3.96001 22.6298 3.96001 27.9898 3.96001C27.9898 3.28001 27.9798 2.62001 27.9898 1.95001C28.0098 1.02001 28.5198 0.350006 29.3598 0.100006C30.2398 -0.159994 31.1898 0.130006 31.6398 0.860006C31.8498 1.19001 31.9298 1.61001 31.9998 2.00001C32.0598 2.32001 32.0098 2.65001 32.0198 2.98001C32.0198 3.29001 32.0198 3.60001 32.0198 3.99001C32.1898 3.99001 32.3298 3.99001 32.4798 3.99001C34.2498 3.99001 36.0098 3.99001 37.7798 3.99001C39.2098 4.00001 39.9998 4.78001 39.9998 6.23001C39.9998 16.74 39.9998 27.26 39.9998 37.77C39.9998 39.23 39.2298 40 37.7798 40C26.7398 40 15.6898 40 4.64984 40C3.83984 40 3.02984 40 2.20984 40C0.809839 39.99 0.0298385 39.22 0.0298385 37.83C0.0198385 33.55 0.0198385 29.27 0.0198385 24.99C0.0198385 18.77 0.0498385 12.55 0.00983852 6.34001C-0.000161481 4.82001 1.01984 3.94001 2.38984 3.99001C4.07984 4.05001 5.75984 4.00001 7.44984 4.00001C7.60984 3.99001 7.77984 3.99001 7.99984 3.99001ZM4.02984 35.97C14.7098 35.97 25.3398 35.97 35.9798 35.97C35.9798 29.97 35.9798 24.01 35.9798 18.02C25.3198 18.02 14.6898 18.02 4.02984 18.02C4.02984 24.01 4.02984 29.97 4.02984 35.97ZM27.9998 8.03001C22.6398 8.03001 17.3498 8.03001 11.9998 8.03001C11.9998 8.28001 11.9998 8.51001 11.9998 8.74001C11.9898 9.27001 11.9998 9.80001 11.9598 10.33C11.9098 11.01 11.5298 11.49 10.9298 11.79C9.53984 12.48 8.03984 11.57 8.00984 10.02C7.99984 9.35001 8.00984 8.69001 8.00984 8.02001C6.64984 8.02001 5.35984 8.02001 4.03984 8.02001C4.03984 10.02 4.03984 11.99 4.03984 13.98C14.6998 13.98 25.3298 13.98 35.9898 13.98C35.9898 11.98 35.9898 10.01 35.9898 8.03001C34.6498 8.03001 33.3498 8.03001 32.0098 8.03001C32.0098 8.73001 32.0198 9.40001 32.0098 10.07C31.9998 10.73 31.7498 11.29 31.1698 11.66C30.4998 12.09 29.7898 12.14 29.0698 11.81C28.3398 11.47 28.0198 10.85 27.9998 10.07C27.9798 9.40001 27.9998 8.73001 27.9998 8.03001Z" fill="#787878"/>
<path d="M19.9997 23.99C19.2497 23.99 18.4997 24.02 17.7497 23.98C16.9197 23.93 16.3297 23.48 16.0897 22.69C15.8297 21.85 15.9697 21.05 16.6797 20.48C16.9997 20.23 17.4597 20.04 17.8697 20.02C19.2997 19.97 20.7397 19.98 22.1797 20.01C23.2697 20.03 24.0097 20.79 24.0597 21.83C24.1097 22.97 23.4397 23.85 22.3397 23.95C21.5697 24.02 20.7797 23.96 19.9997 23.96C19.9997 23.98 19.9997 23.99 19.9997 23.99Z" fill="#787878"/>
<path d="M30.0696 20.01C30.7396 20.01 31.4096 20 32.0796 20.01C33.2096 20.04 33.9796 20.78 34.0496 21.86C34.1096 22.97 33.3696 23.92 32.2496 23.97C30.7496 24.04 29.2496 24.04 27.7596 23.97C26.6596 23.92 25.9696 23.03 26.0196 21.93C26.0596 20.81 26.8496 20.03 27.9696 20.01C28.6696 19.99 29.3696 20.01 30.0696 20.01Z" fill="#787878"/>
<path d="M29.9899 32C29.3199 32 28.6499 32.01 27.9799 32C26.8299 31.98 26.0499 31.22 26.0099 30.11C25.9699 28.93 26.6899 28.06 27.8599 28.02C29.2899 27.97 30.7299 27.97 32.1699 28.02C33.3299 28.06 34.0499 28.89 34.0299 30.01C34.0099 31.17 33.2199 31.98 32.0499 32C31.3699 32.02 30.6799 32 29.9899 32Z" fill="#787878"/>
<path d="M9.99978 20.01C10.6898 20.01 11.3698 20 12.0598 20.01C13.2398 20.04 14.0198 20.79 14.0598 21.93C14.0998 23.02 13.3798 23.92 12.2498 23.98C10.7598 24.05 9.24978 24.05 7.75978 23.99C6.68978 23.94 5.99978 23.05 6.05978 21.96C6.11978 20.81 6.88978 20.03 7.97978 20.01C8.65978 20 9.32978 20 9.99978 20.01Z" fill="#787878"/>
<path d="M19.9698 32C19.2998 32 18.6298 32.01 17.9598 32C16.8198 31.97 16.0198 31.2 15.9698 30.12C15.9198 28.93 16.6198 28.07 17.8098 28.03C19.2598 27.97 20.7098 27.97 22.1598 28.03C23.2998 28.07 23.9898 28.95 23.9398 30.13C23.8898 31.24 23.1298 31.99 22.0198 32.02C21.3398 32.02 20.6498 32 19.9698 32Z" fill="#787878"/>
<path d="M10.01 32C9.31995 32 8.63995 32.01 7.94995 32C6.82995 31.98 6.04995 31.18 6.03995 30.06C6.01995 28.89 6.74995 28.04 7.87995 28.01C9.26995 27.97 10.66 27.97 12.04 28.01C13.23 28.04 14.01 28.87 14 30.01C13.99 31.17 13.17 31.98 11.98 32.01C11.32 32.02 10.67 32.01 10.01 32C10.01 32.01 10.01 32 10.01 32Z" fill="#787878"/>
<path d="M7.99984 3.99001C7.99984 3.27001 7.98984 2.63001 7.99984 1.99001C8.00984 0.830006 8.79984 0.0400056 9.92984 0.0200056C11.1198 5.59166e-06 11.9298 0.730006 11.9798 1.91001C12.0098 2.58001 11.9898 3.25001 11.9898 3.96001C17.3298 3.96001 22.6298 3.96001 27.9898 3.96001C27.9898 3.28001 27.9798 2.62001 27.9898 1.95001C28.0098 1.02001 28.5198 0.350006 29.3598 0.100006C30.2398 -0.159994 31.1898 0.130006 31.6398 0.860006C31.8498 1.19001 31.9298 1.61001 31.9998 2.00001C32.0598 2.32001 32.0098 2.65001 32.0198 2.98001C32.0198 3.29001 32.0198 3.60001 32.0198 3.99001C32.1898 3.99001 32.3298 3.99001 32.4798 3.99001C34.2498 3.99001 36.0098 3.99001 37.7798 3.99001C39.2098 4.00001 39.9998 4.78001 39.9998 6.23001C39.9998 16.74 39.9998 27.26 39.9998 37.77C39.9998 39.23 39.2298 40 37.7798 40C26.7398 40 15.6898 40 4.64984 40C3.83984 40 3.02984 40 2.20984 40C0.809839 39.99 0.0298385 39.22 0.0298385 37.83C0.0198385 33.55 0.0198385 29.27 0.0198385 24.99C0.0198385 18.77 0.0498385 12.55 0.00983852 6.34001C-0.000161481 4.82001 1.01984 3.94001 2.38984 3.99001C4.07984 4.05001 5.75984 4.00001 7.44984 4.00001C7.60984 3.99001 7.77984 3.99001 7.99984 3.99001ZM4.02984 35.97C14.7098 35.97 25.3398 35.97 35.9798 35.97C35.9798 29.97 35.9798 24.01 35.9798 18.02C25.3198 18.02 14.6898 18.02 4.02984 18.02C4.02984 24.01 4.02984 29.97 4.02984 35.97ZM27.9998 8.03001C22.6398 8.03001 17.3498 8.03001 11.9998 8.03001C11.9998 8.28001 11.9998 8.51001 11.9998 8.74001C11.9898 9.27001 11.9998 9.80001 11.9598 10.33C11.9098 11.01 11.5298 11.49 10.9298 11.79C9.53984 12.48 8.03984 11.57 8.00984 10.02C7.99984 9.35001 8.00984 8.69001 8.00984 8.02001C6.64984 8.02001 5.35984 8.02001 4.03984 8.02001C4.03984 10.02 4.03984 11.99 4.03984 13.98C14.6998 13.98 25.3298 13.98 35.9898 13.98C35.9898 11.98 35.9898 10.01 35.9898 8.03001C34.6498 8.03001 33.3498 8.03001 32.0098 8.03001C32.0098 8.73001 32.0198 9.40001 32.0098 10.07C31.9998 10.73 31.7498 11.29 31.1698 11.66C30.4998 12.09 29.7898 12.14 29.0698 11.81C28.3398 11.47 28.0198 10.85 27.9998 10.07C27.9798 9.40001 27.9998 8.73001 27.9998 8.03001Z" fill="#787878"/>
<path d="M19.9997 23.99C19.2497 23.99 18.4997 24.02 17.7497 23.98C16.9197 23.93 16.3297 23.48 16.0897 22.69C15.8297 21.85 15.9697 21.05 16.6797 20.48C16.9997 20.23 17.4597 20.04 17.8697 20.02C19.2997 19.97 20.7397 19.98 22.1797 20.01C23.2697 20.03 24.0097 20.79 24.0597 21.83C24.1097 22.97 23.4397 23.85 22.3397 23.95C21.5697 24.02 20.7797 23.96 19.9997 23.96C19.9997 23.98 19.9997 23.99 19.9997 23.99Z" fill="#787878"/>
<path d="M30.0696 20.01C30.7396 20.01 31.4096 20 32.0796 20.01C33.2096 20.04 33.9796 20.78 34.0496 21.86C34.1096 22.97 33.3696 23.92 32.2496 23.97C30.7496 24.04 29.2496 24.04 27.7596 23.97C26.6596 23.92 25.9696 23.03 26.0196 21.93C26.0596 20.81 26.8496 20.03 27.9696 20.01C28.6696 19.99 29.3696 20.01 30.0696 20.01Z" fill="#787878"/>
<path d="M29.9899 32C29.3199 32 28.6499 32.01 27.9799 32C26.8299 31.98 26.0499 31.22 26.0099 30.11C25.9699 28.93 26.6899 28.06 27.8599 28.02C29.2899 27.97 30.7299 27.97 32.1699 28.02C33.3299 28.06 34.0499 28.89 34.0299 30.01C34.0099 31.17 33.2199 31.98 32.0499 32C31.3699 32.02 30.6799 32 29.9899 32Z" fill="#787878"/>
<path d="M9.99978 20.01C10.6898 20.01 11.3698 20 12.0598 20.01C13.2398 20.04 14.0198 20.79 14.0598 21.93C14.0998 23.02 13.3798 23.92 12.2498 23.98C10.7598 24.05 9.24978 24.05 7.75978 23.99C6.68978 23.94 5.99978 23.05 6.05978 21.96C6.11978 20.81 6.88978 20.03 7.97978 20.01C8.65978 20 9.32978 20 9.99978 20.01Z" fill="#787878"/>
<path d="M19.9698 32C19.2998 32 18.6298 32.01 17.9598 32C16.8198 31.97 16.0198 31.2 15.9698 30.12C15.9198 28.93 16.6198 28.07 17.8098 28.03C19.2598 27.97 20.7098 27.97 22.1598 28.03C23.2998 28.07 23.9898 28.95 23.9398 30.13C23.8898 31.24 23.1298 31.99 22.0198 32.02C21.3398 32.02 20.6498 32 19.9698 32Z" fill="#787878"/>
<path d="M10.01 32C9.31995 32 8.63995 32.01 7.94995 32C6.82995 31.98 6.04995 31.18 6.03995 30.06C6.01995 28.89 6.74995 28.04 7.87995 28.01C9.26995 27.97 10.66 27.97 12.04 28.01C13.23 28.04 14.01 28.87 14 30.01C13.99 31.17 13.17 31.98 11.98 32.01C11.32 32.02 10.67 32.01 10.01 32C10.01 32.01 10.01 32 10.01 32Z" fill="#787878"/>
</g>
<defs>
<clipPath id="clip0">
<rect width="40" height="40" fill="white"/>
</clipPath>
</defs>
</svg>
